<?xml version="1.0" standalone="no"?>
<!DOCTYPE svg PUBLIC "-//W3C//DTD SVG 20010904//EN"
 "http://www.w3.org/TR/2001/REC-SVG-20010904/DTD/svg10.dtd">
<svg version="1.0" xmlns="http://www.w3.org/2000/svg"
 width="700.000000pt" height="700.000000pt" viewBox="0 0 700.000000 700.000000"
 preserveAspectRatio="xMidYMid meet">
<metadata>
Created by potrace 1.11, written by Peter Selinger 2001-2013
</metadata>
<g transform="translate(0.000000,700.000000) scale(0.100000,-0.100000)"
fill="#000000" stroke="none">
<path d="M695 6966 c-276 -58 -457 -183 -573 -396 -48 -89 -90 -225 -108 -355
-4 -27 -8 -1247 -9 -2710 -1 -2916 -4 -2754 59 -2950 95 -293 320 -480 651
-539 68 -12 481 -14 2820 -12 l2740 1 80 23 c132 37 203 67 289 125 195 131
307 331 344 617 4 30 7 1268 7 2750 0 2593 -1 2698 -19 2780 -84 385 -308 603
-691 671 -94 16 -258 17 -2790 17 l-2690 1 -110 -23z m1286 -1025 c1 -3 2
-328 3 -721 1 -679 2 -717 20 -744 16 -26 22 -28 61 -24 24 3 56 14 72 26 15
11 66 42 113 69 47 27 177 102 289 167 l204 118 86 -5 c336 -23 633 -216 764
-498 32 -69 57 -147 73 -229 4 -19 8 -540 8 -1157 l2 -1123 -443 0 -443 0 0
48 c-1 26 -1 414 -2 862 -1 921 -3 964 -65 1115 -89 215 -279 305 -575 272
-76 -9 -122 -29 -145 -63 -17 -27 -18 -80 -19 -1129 l0 -1100 -445 0 -444 0
-1 2055 c0 1130 1 2058 3 2062 4 8 883 8 884 -1z m3360 -735 c0 -6 2 -92 3
-191 2 -194 6 -209 57 -239 23 -14 75 -16 393 -16 l366 -1 0 -214 0 -215 -361
0 c-401 0 -415 -2 -440 -63 -11 -25 -13 -159 -13 -632 0 -548 3 -672 20 -775
18 -115 71 -233 134 -298 42 -43 120 -85 189 -102 80 -21 300 -15 377 9 16 5
41 12 57 15 l27 6 0 -150 0 -150 -37 -20 c-21 -11 -56 -31 -78 -44 -22 -14
-51 -31 -65 -39 -14 -7 -115 -67 -225 -132 -110 -65 -224 -132 -253 -149 -30
-17 -63 -37 -75 -44 -25 -15 -184 -10 -252 8 -89 24 -203 66 -248 92 -26 15
-51 28 -54 28 -13 0 -119 86 -161 130 -129 133 -205 286 -234 465 -7 47 -11
346 -11 915 0 711 -2 849 -14 873 -24 47 -60 55 -248 55 l-170 0 0 107 -1 108
86 54 c47 30 287 182 533 337 l448 283 125 -1 c81 0 124 -3 125 -10z"/>
</g>
</svg>
