<?xml version="1.0" encoding="utf-8"?>
<!-- Generator: Adobe Illustrator 24.0.2, SVG Export Plug-In . SVG Version: 6.00 Build 0)  -->
<svg version="1.1" baseProfile="basic" id="Layer_1"
	 xmlns="http://www.w3.org/2000/svg" xmlns:xlink="http://www.w3.org/1999/xlink" x="0px" y="0px" width="1470px" height="620px"
	 viewBox="0 0 1470 620" xml:space="preserve">
<path fill="#01E0A7" d="M440.12,87.2c-2.77,0-4.99-0.6-6.64-1.81c-1.65-1.2-2.46-2.88-2.42-5.02c0.51-1.16,1.24-2.16,2.15-3.02
	c0.92-0.86,1.98-1.54,3.2-2.06h0.73c-1.71,1.25-2.88,2.31-3.53,3.18c-0.65,0.88-0.96,1.7-0.96,2.5c0,1.5,0.72,2.69,2.15,3.59
	c1.43,0.9,3.3,1.35,5.59,1.35c2.62,0,4.77-0.55,6.43-1.67s2.5-2.56,2.5-4.33c0-0.61-0.14-1.29-0.44-2.04
	c-0.29-0.74-0.74-1.43-1.35-2.04H436.1c-0.51-0.55-0.92-1.13-1.19-1.74c-0.28-0.61-0.41-1.2-0.41-1.78c0-0.61,0.13-1.21,0.41-1.81
	c0.28-0.59,0.67-1.16,1.19-1.72l-0.1,5.54h9.97c0.92,0,1.74,0.23,2.45,0.69c0.72,0.46,1.28,1.08,1.7,1.85
	c0.41,0.78,0.62,1.67,0.62,2.68c0,1.53-0.45,2.86-1.35,4c-0.9,1.14-2.15,2.04-3.76,2.68C444.03,86.87,442.19,87.2,440.12,87.2z
	 M440.4,70.41c-2.47,0-4.44-0.63-5.93-1.9c-1.48-1.27-2.22-2.97-2.22-5.1c0-1.55,0.37-2.92,1.13-4.1c0.74-1.17,1.78-2.09,3.11-2.75
	c1.33-0.66,2.86-0.98,4.6-0.98c2.47,0,4.48,0.64,6.04,1.93c1.55,1.28,2.34,2.99,2.34,5.13c0,1.55-0.39,2.92-1.16,4.1
	c-0.78,1.17-1.85,2.08-3.2,2.73C443.72,70.08,442.16,70.41,440.4,70.41z M440.44,69.12c2.35,0,4.21-0.57,5.59-1.72
	s2.06-2.66,2.06-4.56c0-1.86-0.66-3.32-1.96-4.37c-1.32-1.05-3.05-1.58-5.22-1.58c-0.86,0-1.74,0.08-2.68,0.23
	c-0.93,0.15-1.84,0.38-2.73,0.69c-0.67,1.13-1.16,2.16-1.47,3.11c-0.31,0.94-0.46,1.78-0.46,2.52c0,1.74,0.63,3.12,1.88,4.14
	C436.7,68.61,438.37,69.12,440.44,69.12z M446.76,58c-0.12-0.43-0.22-0.86-0.3-1.28c-0.08-0.43-0.11-0.84-0.11-1.24
	c0-1.1,0.32-1.93,0.96-2.47c0.64-0.54,1.58-0.82,2.84-0.82c0.33,0,0.7,0.02,1.08,0.07c0.38,0.05,0.8,0.11,1.26,0.21l-0.23,1.28
	h-4.44L446.95,58C446.95,58,446.76,58,446.76,58z"/>
<path fill="#01E0A7" d="M165.53,77.77V77.4c0.49-0.18,1.02-0.35,1.6-0.51c0.58-0.15,1.3-0.28,2.15-0.36l0.46-28.65l-2.24-2.34
	c0.51-0.33,1.06-0.62,1.62-0.85s1.15-0.4,1.76-0.52v32.4l4.07,0.87v0.32H165.53z M170.66,59.78v-0.87c0.97-0.86,1.98-1.54,3.02-2.08
	c1.04-0.53,2.12-0.95,3.25-1.26c0.12,0,0.24,0,0.34,0c0.1,0,0.21,0,0.3,0c1.34,0,2.59,0.26,3.76,0.78c1.16,0.51,2.26,1.35,3.3,2.52
	l-1.19,0.69c-1.83-1.74-3.83-2.61-6-2.61C175.18,56.94,172.92,57.89,170.66,59.78z M179.26,77.77V77.4c0.49-0.18,1.02-0.35,1.6-0.51
	c0.58-0.15,1.3-0.28,2.15-0.36l0.41-16.98l1.19-0.69v17.72l4.07,0.87v0.32L179.26,77.77L179.26,77.77z"/>
<path fill="#01E0A7" d="M706.45,76.95l0.41-29.06l-2.06-2.38c0.55-0.33,1.09-0.61,1.6-0.82c0.51-0.21,1.07-0.38,1.65-0.51v32.77
	H706.45z M706.45,76.95l1.05-0.92c0.92,0.28,1.8,0.48,2.65,0.62c0.86,0.13,1.66,0.21,2.42,0.21c2.87,0,5.13-0.91,6.77-2.73
	c1.65-1.81,2.47-4.34,2.47-7.57c0-1.71-0.25-3.28-0.75-4.71s-1.24-2.77-2.22-3.99l1.83,1.88c-2.19-1.83-4.38-2.75-6.54-2.75
	c-2.14,0-4.29,0.92-6.46,2.75v-0.92c0.94-0.79,1.91-1.46,2.88-1.99c0.97-0.53,1.98-0.97,3.02-1.31c0.06,0,0.12,0,0.18,0
	c0.06,0,0.1,0,0.13,0c1.93,0,3.58,0.48,4.97,1.44c1.39,0.96,2.46,2.27,3.2,3.94c0.74,1.67,1.13,3.54,1.13,5.61
	c0,2.38-0.44,4.44-1.33,6.18c-0.89,1.74-2.13,3.07-3.73,4c-1.6,0.93-3.49,1.39-5.65,1.39c-0.92,0-1.89-0.1-2.91-0.28
	C708.56,77.63,707.52,77.35,706.45,76.95z"/>
<path fill="#01E0A7" d="M560.52,86.23l0.13-1.28l7.37,0.46c0.82-1.04,1.52-2.02,2.08-2.96c0.56-0.93,1.11-1.95,1.62-3.07
	c0.51-1.12,1.07-2.45,1.65-4l7.19-19.04h1.37l-7.46,19.45c-1.5,3.94-2.99,6.79-4.51,8.56c-1.51,1.77-3.32,2.65-5.43,2.65
	c-0.58,0-1.2-0.07-1.88-0.21C562,86.67,561.29,86.48,560.52,86.23z M564.87,57.22c-0.55-0.1-1.06-0.22-1.54-0.39
	c-0.48-0.17-0.92-0.36-1.35-0.57v-0.36h7.55v0.36L564.87,57.22z M571.74,77.22l-7.78-20.87h1.6l7.46,20.46L571.74,77.22z
	 M581.3,57.22c-0.89-0.06-1.75-0.17-2.61-0.34c-0.86-0.17-1.73-0.37-2.61-0.62v-0.36h7.55v0.36L581.3,57.22z"/>
<path fill="#01E0A7" d="M305.81,78.09c-0.92,0-1.87-0.07-2.86-0.21c-0.99-0.13-2.02-0.36-3.09-0.67l0.46-1.37
	c1.4,0.31,2.78,0.53,4.14,0.69c1.35,0.15,2.68,0.23,3.96,0.23c0.51,0,1.03-0.02,1.54-0.05c0.51-0.03,1-0.06,1.49-0.1l-1.51,0.32
	c0.82-0.21,1.54-0.72,2.17-1.51c0.63-0.79,0.93-1.62,0.93-2.47c0-0.89-0.31-1.64-0.92-2.27s-1.39-1.19-2.36-1.7
	c-0.96-0.51-1.97-1.01-3.04-1.51c-1.07-0.51-2.08-1.05-3.04-1.62c-0.96-0.58-1.74-1.27-2.36-2.06c-0.61-0.79-0.92-1.75-0.92-2.88
	c0-1.68,0.74-2.99,2.22-3.94c1.48-0.94,3.38-1.42,5.7-1.42c0.79,0,1.62,0.06,2.5,0.18c0.87,0.12,1.76,0.31,2.68,0.55l-0.32,1.51
	c-1.28-0.31-2.46-0.52-3.55-0.67c-1.09-0.13-2.17-0.21-3.27-0.21c-0.49,0-0.99,0.02-1.51,0.05c-0.51,0.03-1.04,0.08-1.55,0.13
	l0.78-0.23c-0.73,0.31-1.31,0.79-1.72,1.47c-0.41,0.67-0.62,1.4-0.62,2.19c0,0.94,0.31,1.76,0.92,2.45
	c0.61,0.69,1.39,1.29,2.34,1.81c0.94,0.51,1.96,1.02,3.04,1.51c1.09,0.49,2.1,1.01,3.04,1.58c0.94,0.56,1.73,1.22,2.34,1.96
	c0.61,0.75,0.92,1.67,0.92,2.77c0,1.68-0.8,3-2.4,3.99C310.31,77.61,308.28,78.09,305.81,78.09z M299.86,77.22l0.18-6.36h0.36
	l1.1,6.36H299.86z M313.03,62.21l-1.14-5.9h1.6l-0.1,5.9H313.03z"/>
<path fill="#01E0A7" d="M835.82,77.77V77.4c0.49-0.18,1.02-0.35,1.6-0.51c0.58-0.15,1.3-0.28,2.15-0.36l0.46-28.65l-2.24-2.34
	c0.51-0.33,1.06-0.62,1.62-0.85c0.56-0.23,1.15-0.4,1.76-0.52v32.4l4.07,0.87v0.32H835.82z M840.95,59.78v-0.87
	c0.97-0.86,1.98-1.54,3.02-2.08c1.04-0.53,2.12-0.95,3.25-1.26c0.12,0,0.24,0,0.34,0s0.21,0,0.3,0c1.34,0,2.59,0.26,3.76,0.78
	c1.16,0.51,2.26,1.35,3.3,2.52l-1.19,0.69c-1.83-1.74-3.83-2.61-6-2.61C845.47,56.94,843.21,57.89,840.95,59.78z M849.55,77.77V77.4
	c0.49-0.18,1.02-0.35,1.6-0.51c0.58-0.15,1.3-0.28,2.15-0.36l0.41-16.98l1.19-0.69v17.72l4.07,0.87v0.32L849.55,77.77L849.55,77.77z
	"/>
<path fill="#01E0A7" d="M975.98,77.77V77.4c0.49-0.18,1.02-0.35,1.6-0.51c0.58-0.15,1.3-0.28,2.15-0.36l0.46-28.65l-2.24-2.34
	c0.51-0.33,1.06-0.62,1.62-0.85s1.15-0.4,1.76-0.52v32.4l4.07,0.87v0.32H975.98z M993.37,78.14l-9.94-11.99l8.65-9.79h1.33v0.32
	l-8.65,9.89v-0.92l10.3,11.8c-0.25,0.12-0.51,0.25-0.78,0.36C994.02,77.94,993.71,78.04,993.37,78.14z M992.65,57.17
	c-0.82-0.06-1.59-0.17-2.29-0.34c-0.71-0.17-1.39-0.36-2.06-0.57v-0.36h7.27v0.36L992.65,57.17z"/>
<path fill="#01E0A7" d="M1108.61,77.77V77.4c0.49-0.18,1.02-0.35,1.6-0.51c0.58-0.15,1.3-0.28,2.15-0.36l0.41-17.34l-2.19-2.34
	c0.97-0.64,2.04-1.1,3.2-1.37l0.18,3.53v17.57l4.07,0.87v0.32L1108.61,77.77L1108.61,77.77z M1113.74,59.78v-0.87
	c0.97-0.86,1.98-1.54,3.02-2.08c1.04-0.53,2.12-0.95,3.25-1.26c0.12,0,0.24,0,0.34,0c0.1,0,0.21,0,0.3,0c1.34,0,2.59,0.26,3.76,0.78
	c1.16,0.51,2.26,1.35,3.3,2.52l-1.19,0.69c-1.83-1.74-3.83-2.61-6-2.61C1118.25,56.94,1115.99,57.89,1113.74,59.78z M1114.51,50.81
	l-0.32-0.36c0.67-0.89,1.21-1.55,1.62-2.01c0.41-0.46,0.74-0.77,1.01-0.93c0.27-0.16,0.5-0.25,0.71-0.23
	c0.21,0.02,0.44,0.06,0.69,0.11l4.94,1.33l2.61-2.38l0.32,0.32c-0.86,1.16-1.52,1.97-1.99,2.45c-0.48,0.48-0.85,0.72-1.13,0.75
	c-0.28,0.03-0.58,0-0.92-0.1l-4.94-1.33L1114.51,50.81z M1122.34,77.77V77.4c0.49-0.18,1.02-0.35,1.6-0.51
	c0.58-0.15,1.3-0.28,2.15-0.36l0.41-16.98l1.19-0.69v17.72l4.07,0.87v0.32L1122.34,77.77L1122.34,77.77z"/>
<path fill="#01E0A7" d="M1248.08,77.77V77.4c0.97-0.46,2.03-0.78,3.16-0.96l3.84,0.96v0.36H1248.08z M1252.43,57.22
	c-0.67-0.1-1.29-0.22-1.85-0.39c-0.56-0.17-1.08-0.36-1.54-0.57v-0.36h7.55v0.36L1252.43,57.22z M1250.09,77.31v-0.23l8.7-11.72
	h0.78l8.37,11.54v0.41h-1.51l-7.65-10.66h0.59l-7.91,10.66C1251.46,77.31,1250.09,77.31,1250.09,77.31z M1258.74,66.65l-7.23-9.89
	v-0.41h1.55l6.45,9.02h-0.59l6.64-9.02h1.47v0.23l-7.46,10.07H1258.74z M1266.34,57.17c-0.73-0.06-1.43-0.17-2.08-0.34
	c-0.66-0.17-1.29-0.36-1.9-0.57v-0.36h7v0.36L1266.34,57.17z M1262.68,77.77V77.4c0.76-0.31,1.53-0.54,2.29-0.71s1.53-0.27,2.29-0.3
	l3.02,1.01v0.36L1262.68,77.77L1262.68,77.77z"/>
<path fill="#01E0A7" d="M161.72,329.48v-0.36c0.49-0.18,1.02-0.35,1.6-0.51c0.58-0.15,1.3-0.28,2.15-0.36l0.46-28.65l-2.24-2.34
	c0.51-0.33,1.06-0.62,1.62-0.85c0.56-0.23,1.15-0.4,1.76-0.52v32.4l4.07,0.87v0.32H161.72z M179.11,329.85l-9.94-11.99l8.65-9.79
	h1.33v0.32l-8.65,9.89v-0.92l10.3,11.8c-0.25,0.12-0.51,0.25-0.78,0.36C179.76,329.65,179.45,329.76,179.11,329.85z M178.38,308.89
	c-0.82-0.06-1.58-0.17-2.29-0.34c-0.71-0.17-1.39-0.36-2.06-0.57v-0.36h7.27v0.36L178.38,308.89z"/>
<path fill="#01E0A7" d="M294.35,329.48v-0.36c0.49-0.18,1.02-0.35,1.6-0.51s1.3-0.28,2.15-0.36l0.41-17.34l-2.19-2.34
	c0.97-0.64,2.04-1.1,3.2-1.37l0.18,3.53v17.57l4.07,0.87v0.32L294.35,329.48L294.35,329.48z M299.47,311.5v-0.87
	c0.97-0.86,1.98-1.54,3.02-2.08c1.04-0.53,2.12-0.95,3.25-1.26c0.12,0,0.24,0,0.34,0s0.21,0,0.3,0c1.34,0,2.59,0.26,3.76,0.78
	c1.16,0.51,2.26,1.35,3.3,2.52l-1.19,0.69c-1.83-1.74-3.83-2.61-6-2.61C303.98,308.66,301.72,309.6,299.47,311.5z M300.25,302.53
	l-0.32-0.36c0.67-0.89,1.21-1.55,1.62-2.01c0.41-0.46,0.74-0.77,1.01-0.93c0.26-0.17,0.5-0.25,0.71-0.23
	c0.21,0.02,0.44,0.06,0.69,0.11l4.94,1.33l2.61-2.38l0.32,0.32c-0.86,1.16-1.52,1.97-1.99,2.45c-0.48,0.48-0.85,0.72-1.13,0.75
	c-0.28,0.03-0.58,0-0.92-0.1l-4.94-1.33L300.25,302.53z M308.08,329.48v-0.36c0.49-0.18,1.02-0.35,1.6-0.51s1.3-0.28,2.15-0.36
	l0.41-16.98l1.19-0.69v17.72l4.07,0.87v0.32L308.08,329.48L308.08,329.48z"/>
<path fill="#01E0A7" d="M433.82,329.48v-0.36c0.97-0.46,2.03-0.78,3.16-0.96l3.84,0.96v0.36H433.82z M438.17,308.94
	c-0.67-0.1-1.29-0.22-1.85-0.39c-0.56-0.17-1.08-0.36-1.54-0.57v-0.36h7.55v0.36L438.17,308.94z M435.83,329.03v-0.23l8.7-11.72
	h0.78l8.37,11.54v0.41h-1.51l-7.65-10.66h0.59l-7.91,10.66H435.83z M444.48,318.37l-7.23-9.89v-0.41h1.55l6.45,9.02h-0.59l6.64-9.02
	h1.47v0.23l-7.46,10.07H444.48z M452.08,308.89c-0.73-0.06-1.43-0.17-2.08-0.34c-0.66-0.17-1.29-0.36-1.9-0.57v-0.36h7v0.36
	L452.08,308.89z M448.42,329.48v-0.36c0.76-0.31,1.53-0.54,2.29-0.71c0.76-0.17,1.53-0.27,2.29-0.3l3.02,1.01v0.36L448.42,329.48
	L448.42,329.48z"/>
<path fill="#01E0A7" d="M94.02,455.34v-0.36c0.49-0.18,1.02-0.35,1.6-0.51c0.58-0.15,1.3-0.28,2.15-0.36l0.46-28.65L96,423.12
	c0.51-0.33,1.06-0.62,1.62-0.85c0.56-0.23,1.15-0.4,1.76-0.52v32.4l4.07,0.87v0.32H94.02z M99.15,437.36v-0.87
	c0.97-0.85,1.98-1.54,3.02-2.08s2.12-0.95,3.25-1.26c0.12,0,0.24,0,0.34,0c0.1,0,0.21,0,0.3,0c1.34,0,2.59,0.26,3.76,0.78
	c1.16,0.51,2.26,1.35,3.3,2.52l-1.19,0.69c-1.83-1.74-3.83-2.61-6-2.61C103.67,434.52,101.41,435.47,99.15,437.36z M107.75,455.34
	v-0.36c0.49-0.18,1.02-0.35,1.6-0.51c0.58-0.15,1.3-0.28,2.15-0.36l0.41-16.98l1.19-0.69v17.72l4.07,0.87v0.32L107.75,455.34
	L107.75,455.34z"/>
<path fill="#01E0A7" d="M234.18,455.34v-0.36c0.49-0.18,1.02-0.35,1.6-0.51s1.3-0.28,2.15-0.36l0.46-28.65l-2.24-2.34
	c0.51-0.33,1.06-0.62,1.62-0.85c0.56-0.23,1.15-0.4,1.76-0.52v32.4l4.07,0.87v0.32H234.18z M251.57,455.71l-9.94-11.99l8.65-9.79
	h1.33v0.32l-8.65,9.89v-0.92l10.3,11.8c-0.25,0.12-0.51,0.25-0.78,0.36C252.22,455.51,251.92,455.62,251.57,455.71z M250.85,434.75
	c-0.82-0.06-1.58-0.18-2.29-0.34c-0.71-0.17-1.39-0.36-2.06-0.57v-0.36h7.27v0.36L250.85,434.75z"/>
<path fill="#01E0A7" d="M366.81,455.34v-0.36c0.49-0.18,1.02-0.35,1.6-0.51s1.3-0.28,2.15-0.36l0.41-17.34l-2.19-2.34
	c0.97-0.64,2.04-1.1,3.2-1.37l0.18,3.53v17.57l4.07,0.87v0.32L366.81,455.34L366.81,455.34z M371.94,437.36v-0.87
	c0.97-0.85,1.98-1.54,3.02-2.08c1.04-0.53,2.12-0.95,3.25-1.26c0.12,0,0.24,0,0.34,0c0.1,0,0.21,0,0.3,0c1.34,0,2.59,0.26,3.76,0.78
	c1.16,0.51,2.26,1.35,3.3,2.52l-1.19,0.69c-1.83-1.74-3.83-2.61-6-2.61C376.45,434.52,374.19,435.47,371.94,437.36z M372.71,428.39
	l-0.32-0.36c0.67-0.89,1.21-1.55,1.62-2.01c0.41-0.46,0.74-0.77,1.01-0.93c0.26-0.17,0.5-0.25,0.71-0.23s0.44,0.06,0.69,0.11
	l4.94,1.33l2.61-2.38l0.32,0.32c-0.86,1.16-1.52,1.97-1.99,2.45c-0.48,0.48-0.85,0.72-1.13,0.75c-0.28,0.03-0.58,0-0.92-0.1
	l-4.94-1.33L372.71,428.39z M380.54,455.34v-0.36c0.49-0.18,1.02-0.35,1.6-0.51s1.3-0.28,2.15-0.36l0.41-16.98l1.19-0.69v17.72
	l4.07,0.87v0.32L380.54,455.34L380.54,455.34z"/>
<path fill="#01E0A7" d="M506.28,455.34v-0.36c0.97-0.46,2.03-0.78,3.16-0.96l3.84,0.96v0.36H506.28z M510.63,434.79
	c-0.67-0.1-1.29-0.22-1.85-0.39c-0.56-0.17-1.08-0.36-1.54-0.57v-0.36h7.55v0.36L510.63,434.79z M508.29,454.88v-0.23l8.7-11.72
	h0.78l8.37,11.54v0.41h-1.51l-7.65-10.66h0.59l-7.91,10.66H508.29z M516.94,444.22l-7.23-9.89v-0.41h1.55l6.45,9.02h-0.59l6.64-9.02
	h1.47v0.23l-7.46,10.07H516.94z M524.54,434.75c-0.73-0.06-1.43-0.18-2.08-0.34c-0.66-0.17-1.29-0.36-1.9-0.57v-0.36h7v0.36
	L524.54,434.75z M520.88,455.34v-0.36c0.76-0.31,1.53-0.54,2.29-0.71c0.76-0.17,1.53-0.27,2.29-0.3l3.02,1.01v0.36L520.88,455.34
	L520.88,455.34z"/>
<path fill="#01E0A7" d="M1032.23,203.63v-0.36c0.49-0.18,1.02-0.35,1.6-0.51c0.58-0.15,1.3-0.28,2.15-0.36l0.46-28.65l-2.24-2.34
	c0.51-0.33,1.06-0.62,1.62-0.85s1.15-0.4,1.76-0.52v32.4l4.07,0.87v0.32L1032.23,203.63L1032.23,203.63z M1037.36,185.64v-0.87
	c0.97-0.86,1.98-1.54,3.02-2.08c1.04-0.53,2.12-0.95,3.25-1.26c0.12,0,0.24,0,0.34,0s0.21,0,0.3,0c1.34,0,2.59,0.26,3.76,0.78
	c1.16,0.51,2.26,1.35,3.3,2.52l-1.19,0.69c-1.83-1.74-3.83-2.61-6-2.61C1041.88,182.8,1039.62,183.75,1037.36,185.64z
	 M1045.96,203.63v-0.36c0.49-0.18,1.02-0.35,1.6-0.51s1.3-0.28,2.15-0.36l0.41-16.98l1.19-0.69v17.72l4.07,0.87v0.32L1045.96,203.63
	L1045.96,203.63z"/>
<path fill="#01E0A7" d="M1172.39,203.63v-0.36c0.49-0.18,1.02-0.35,1.6-0.51c0.58-0.15,1.3-0.28,2.15-0.36l0.46-28.65l-2.24-2.34
	c0.51-0.33,1.06-0.62,1.62-0.85s1.15-0.4,1.76-0.52v32.4l4.07,0.87v0.32L1172.39,203.63L1172.39,203.63z M1189.79,204l-9.94-11.99
	l8.65-9.79h1.33v0.32l-8.65,9.89v-0.92l10.3,11.8c-0.25,0.12-0.51,0.25-0.78,0.36C1190.43,203.8,1190.13,203.9,1189.79,204z
	 M1189.06,183.03c-0.82-0.06-1.59-0.17-2.29-0.34c-0.71-0.17-1.39-0.36-2.06-0.57v-0.36h7.28v0.36L1189.06,183.03z"/>
<path fill="#01E0A7" d="M1305.02,203.63v-0.36c0.49-0.18,1.02-0.35,1.6-0.51s1.3-0.28,2.15-0.36l0.41-17.34l-2.19-2.34
	c0.97-0.64,2.04-1.1,3.2-1.37l0.18,3.53v17.57l4.07,0.87v0.32L1305.02,203.63L1305.02,203.63z M1310.15,185.64v-0.87
	c0.97-0.86,1.98-1.54,3.02-2.08c1.04-0.53,2.12-0.95,3.25-1.26c0.12,0,0.24,0,0.34,0s0.21,0,0.3,0c1.34,0,2.59,0.26,3.76,0.78
	c1.16,0.51,2.26,1.35,3.3,2.52l-1.19,0.69c-1.83-1.74-3.83-2.61-6-2.61C1314.66,182.8,1312.4,183.75,1310.15,185.64z
	 M1310.92,176.67l-0.32-0.36c0.67-0.89,1.21-1.55,1.62-2.01c0.41-0.46,0.74-0.77,1.01-0.93c0.27-0.16,0.5-0.25,0.71-0.23
	c0.21,0.02,0.44,0.06,0.69,0.11l4.94,1.33l2.61-2.38l0.32,0.32c-0.86,1.16-1.52,1.97-1.99,2.45c-0.48,0.48-0.85,0.72-1.13,0.75
	c-0.28,0.03-0.58,0-0.92-0.1l-4.94-1.33L1310.92,176.67z M1318.75,203.63v-0.36c0.49-0.18,1.02-0.35,1.6-0.51s1.3-0.28,2.15-0.36
	l0.41-16.98l1.19-0.69v17.72l4.07,0.87v0.32L1318.75,203.63L1318.75,203.63z"/>
<path fill="#01E0A7" d="M65.41,590.63c-2.77,0-4.99-0.6-6.64-1.8c-1.65-1.21-2.46-2.88-2.42-5.02c0.51-1.16,1.24-2.16,2.15-3.02
	c0.92-0.86,1.98-1.54,3.2-2.06h0.73c-1.71,1.25-2.88,2.31-3.53,3.18c-0.65,0.88-0.96,1.7-0.96,2.5c0,1.5,0.72,2.69,2.15,3.59
	c1.43,0.9,3.3,1.35,5.59,1.35c2.62,0,4.77-0.55,6.43-1.67s2.5-2.56,2.5-4.33c0-0.61-0.14-1.29-0.44-2.04
	c-0.3-0.75-0.74-1.43-1.35-2.03H61.38c-0.51-0.55-0.92-1.13-1.19-1.74c-0.28-0.61-0.41-1.2-0.41-1.78c0-0.61,0.13-1.21,0.41-1.81
	c0.28-0.59,0.67-1.16,1.19-1.72l-0.1,5.54h9.97c0.92,0,1.74,0.23,2.45,0.69s1.28,1.08,1.7,1.86c0.41,0.77,0.62,1.67,0.62,2.68
	c0,1.53-0.45,2.86-1.35,4c-0.9,1.14-2.15,2.03-3.76,2.68C69.32,590.3,67.48,590.63,65.41,590.63z M65.68,573.83
	c-2.47,0-4.44-0.63-5.93-1.9c-1.48-1.27-2.22-2.97-2.22-5.1c0-1.55,0.37-2.92,1.13-4.1c0.74-1.17,1.78-2.09,3.11-2.75
	s2.86-0.98,4.6-0.98c2.47,0,4.48,0.64,6.04,1.93c1.55,1.28,2.34,2.98,2.34,5.13c0,1.55-0.39,2.92-1.16,4.1
	c-0.78,1.17-1.85,2.08-3.2,2.73C69.01,573.51,67.45,573.83,65.68,573.83z M65.72,572.55c2.35,0,4.21-0.57,5.59-1.72
	s2.06-2.66,2.06-4.56c0-1.86-0.66-3.32-1.96-4.37c-1.32-1.05-3.05-1.58-5.22-1.58c-0.86,0-1.74,0.08-2.68,0.23s-1.84,0.38-2.73,0.69
	c-0.67,1.13-1.16,2.16-1.47,3.11c-0.31,0.94-0.46,1.78-0.46,2.52c0,1.74,0.63,3.12,1.88,4.15
	C61.98,572.05,63.65,572.55,65.72,572.55z M72.04,561.43c-0.12-0.43-0.22-0.86-0.3-1.28c-0.08-0.43-0.11-0.84-0.11-1.24
	c0-1.1,0.32-1.93,0.96-2.47c0.64-0.54,1.58-0.82,2.84-0.82c0.33,0,0.7,0.02,1.08,0.07c0.38,0.05,0.8,0.11,1.26,0.2l-0.23,1.28H73.1
	l-0.87,4.25L72.04,561.43L72.04,561.43z"/>
<path fill="#01E0A7" d="M185.81,589.67l0.13-1.28l7.37,0.46c0.82-1.04,1.52-2.02,2.08-2.96s1.11-1.95,1.62-3.07
	c0.51-1.12,1.07-2.45,1.65-4l7.19-19.04h1.37l-7.46,19.45c-1.5,3.94-2.99,6.79-4.51,8.56c-1.51,1.77-3.32,2.65-5.43,2.65
	c-0.58,0-1.2-0.07-1.88-0.2C187.29,590.1,186.57,589.91,185.81,589.67z M190.16,560.65c-0.55-0.1-1.06-0.22-1.54-0.39
	c-0.48-0.17-0.92-0.36-1.35-0.57v-0.36h7.55v0.36L190.16,560.65z M197.02,580.65l-7.78-20.87h1.6l7.46,20.46L197.02,580.65z
	 M206.59,560.65c-0.89-0.06-1.75-0.17-2.61-0.34c-0.86-0.17-1.73-0.37-2.61-0.62v-0.36h7.55v0.36L206.59,560.65z"/>
<path fill="#01E0A7" d="M873.37,581.2v-0.36c0.97-0.46,2.03-0.78,3.16-0.96l3.84,0.96v0.36H873.37z M877.72,560.65
	c-0.67-0.1-1.29-0.22-1.85-0.39c-0.56-0.17-1.08-0.36-1.54-0.57v-0.36h7.55v0.36L877.72,560.65z M875.38,580.74v-0.23l8.7-11.72
	h0.78l8.37,11.54v0.41h-1.51l-7.65-10.66h0.59l-7.91,10.66H875.38z M884.03,570.08l-7.23-9.89v-0.41h1.55l6.46,9.02h-0.59l6.64-9.02
	h1.47v0.23l-7.46,10.07H884.03z M891.63,560.6c-0.73-0.06-1.43-0.18-2.08-0.34c-0.66-0.17-1.29-0.36-1.9-0.57v-0.36h7v0.36
	L891.63,560.6z M887.96,581.2v-0.36c0.76-0.31,1.53-0.54,2.29-0.71c0.76-0.16,1.53-0.27,2.29-0.3l3.02,1.01v0.36L887.96,581.2
	L887.96,581.2z"/>
<path fill="#01E0A7" d="M1382.95,57.22c-0.55-0.1-1.06-0.22-1.54-0.39c-0.48-0.17-0.92-0.36-1.35-0.57v-0.36h7.55v0.36
	L1382.95,57.22z M1390.18,78.04l-8.1-21.69h1.6l7.6,20.82h-0.46l5.85-15.51l0.69,1.74l-4.9,12.68c-0.15,0.4-0.29,0.72-0.41,0.96
	c-0.12,0.25-0.26,0.43-0.41,0.55s-0.34,0.21-0.57,0.28C1390.84,77.92,1390.55,77.99,1390.18,78.04z M1394.85,57.22
	c-0.55-0.1-1.06-0.22-1.54-0.39c-0.48-0.17-0.92-0.36-1.35-0.57v-0.36h7.55v0.36L1394.85,57.22z M1402.03,78.04l-8.06-21.69h1.6
	l7.55,20.82h-0.46l7.91-20.82h1.37l-7.65,19.73c-0.15,0.4-0.29,0.72-0.41,0.96c-0.12,0.25-0.26,0.43-0.41,0.55
	c-0.15,0.12-0.34,0.21-0.57,0.28C1402.69,77.94,1402.4,77.99,1402.03,78.04z M1411.32,57.22c-0.89-0.06-1.75-0.17-2.61-0.34
	c-0.86-0.17-1.73-0.37-2.61-0.62v-0.36h7.55v0.36L1411.32,57.22z"/>
</svg>
