<svg id="Layer_1" data-name="Layer 1" xmlns="http://www.w3.org/2000/svg" width="1470" height="650" viewBox="0 0 1470 650"><defs><style>.cls-1{opacity:0.65;isolation:isolate;}.cls-2{fill:#01e0a7;}</style></defs><title>Artboard 1</title><g id="Capa_2" data-name="Capa 2"><g class="cls-1"><path class="cls-2" d="M453.58,87.15a10.35,10.35,0,0,1-6.26-1.71A5.41,5.41,0,0,1,445,80.71a8.74,8.74,0,0,1,2-2.85,10.36,10.36,0,0,1,3-1.94h.69a16.29,16.29,0,0,0-3.33,3,4,4,0,0,0-.9,2.35,3.86,3.86,0,0,0,2,3.4,9.86,9.86,0,0,0,5.27,1.27,10.73,10.73,0,0,0,6.07-1.58,4.73,4.73,0,0,0,2.35-4.08,5.19,5.19,0,0,0-.41-1.92,5.45,5.45,0,0,0-1.27-1.92h-10.8a6,6,0,0,1-1.13-1.65,4,4,0,0,1,0-3.39,6.18,6.18,0,0,1,1.13-1.62L449.69,75h9.42a4.23,4.23,0,0,1,2.31.65,4.51,4.51,0,0,1,1.6,1.75,5.26,5.26,0,0,1,.58,2.52,5.93,5.93,0,0,1-1.27,3.78,8.25,8.25,0,0,1-3.55,2.53A13.79,13.79,0,0,1,453.58,87.15Zm.26-15.86a8.31,8.31,0,0,1-5.6-1.79,6,6,0,0,1-2.09-4.82,6.92,6.92,0,0,1,4-6.45,9.63,9.63,0,0,1,4.34-.93,8.67,8.67,0,0,1,5.7,1.81,6,6,0,0,1,2.2,4.84,6.88,6.88,0,0,1-1.1,3.87,7.25,7.25,0,0,1-3,2.57A10.37,10.37,0,0,1,453.84,71.29Zm0-1.21a8,8,0,0,0,5.27-1.61,5.32,5.32,0,0,0,2-4.3A5,5,0,0,0,459.24,60a7.67,7.67,0,0,0-4.93-1.49,16.14,16.14,0,0,0-5.09.87,14.38,14.38,0,0,0-1.39,2.93,8.18,8.18,0,0,0-.43,2.38,4.8,4.8,0,0,0,1.77,3.91A7.24,7.24,0,0,0,453.88,70.08Zm6-10.49c-.11-.41-.21-.81-.28-1.21a6.8,6.8,0,0,1-.11-1.17,2.91,2.91,0,0,1,.91-2.33A4,4,0,0,1,463,54.1a7.5,7.5,0,0,1,1,.07c.35,0,.75.1,1.18.19L465,55.57h-4.19l-.82,4Z"/><path class="cls-2" d="M194.39,78.25V77.9a15.26,15.26,0,0,1,1.52-.47,14.75,14.75,0,0,1,2-.35l.43-27-2.12-2.2a8.59,8.59,0,0,1,1.53-.8,9.46,9.46,0,0,1,1.67-.5V77.13l3.84.82v.3Zm4.84-17v-.82a14.23,14.23,0,0,1,2.85-2,15.25,15.25,0,0,1,3.07-1.19h.6a8.61,8.61,0,0,1,3.55.73,9.35,9.35,0,0,1,3.11,2.38l-1.13.65a8.06,8.06,0,0,0-5.65-2.47A10,10,0,0,0,199.23,61.27Zm8.12,17V77.9a15.26,15.26,0,0,1,1.52-.47,14.75,14.75,0,0,1,2-.35l.38-16,1.13-.65V77.13l3.84.82v.3Z"/><path class="cls-2" d="M705,77.47,705.36,50l-1.94-2.25a11.35,11.35,0,0,1,1.51-.77,9.45,9.45,0,0,1,1.56-.48V77.47Zm0,0,1-.86a19.42,19.42,0,0,0,2.5.58,14.48,14.48,0,0,0,2.29.2,8.23,8.23,0,0,0,6.4-2.57,10.29,10.29,0,0,0,2.33-7.15,13.44,13.44,0,0,0-.71-4.45,12.8,12.8,0,0,0-2.1-3.76l1.73,1.77a9.67,9.67,0,0,0-6.18-2.59,9.48,9.48,0,0,0-6.09,2.59v-.86a16.52,16.52,0,0,1,5.57-3.12H712a8,8,0,0,1,4.68,1.37,8.77,8.77,0,0,1,3,3.71,12.84,12.84,0,0,1,1,5.29,12.63,12.63,0,0,1-1.25,5.83A8.83,8.83,0,0,1,716,77.23a10.41,10.41,0,0,1-5.33,1.32,15,15,0,0,1-2.75-.26A16.66,16.66,0,0,1,705,77.47Z"/><path class="cls-2" d="M567.23,86.24l.13-1.21,7,.43a27.8,27.8,0,0,0,2-2.78c.53-.88,1-1.85,1.54-2.9s1-2.31,1.55-3.78l6.78-18h1.3l-7,18.36a28.12,28.12,0,0,1-4.26,8.08A6.52,6.52,0,0,1,571,87a8.81,8.81,0,0,1-1.77-.2A20,20,0,0,1,567.23,86.24Zm4.11-27.39a8.54,8.54,0,0,1-1.45-.36,12.28,12.28,0,0,1-1.28-.54V57.6h7.13V58Zm6.47,18.88L570.47,58H572l7,19.31Zm9-18.88a18.39,18.39,0,0,1-2.46-.32c-.81-.16-1.63-.35-2.46-.58V57.6h7.13V58Z"/><path class="cls-2" d="M326.79,78.55a19.7,19.7,0,0,1-2.7-.19,21.2,21.2,0,0,1-2.91-.63l.43-1.29c1.32.28,2.63.5,3.91.64a32.15,32.15,0,0,0,3.74.22c.49,0,1,0,1.44,0l1.41-.09-1.43.3a3.8,3.8,0,0,0,2.05-1.42,3.75,3.75,0,0,0,.89-2.34,3,3,0,0,0-.86-2.13,8.69,8.69,0,0,0-2.23-1.6c-.91-.48-1.86-1-2.87-1.43A28.84,28.84,0,0,1,324.79,67a8,8,0,0,1-2.23-2,4.27,4.27,0,0,1-.86-2.72,4.17,4.17,0,0,1,2.09-3.71,9.78,9.78,0,0,1,5.38-1.34,17.69,17.69,0,0,1,2.35.17,21.88,21.88,0,0,1,2.53.52l-.3,1.42c-1.21-.28-2.33-.49-3.35-.62a24.42,24.42,0,0,0-3.09-.2c-.46,0-.93,0-1.42,0s-1,.07-1.47.13l.73-.22a3.41,3.41,0,0,0-1.62,1.38A3.91,3.91,0,0,0,323,62a3.39,3.39,0,0,0,.86,2.31A7.91,7.91,0,0,0,326,66c.89.49,1.85,1,2.87,1.43a28.58,28.58,0,0,1,2.87,1.49A8.3,8.3,0,0,1,334,70.8a4,4,0,0,1,.86,2.61,4.23,4.23,0,0,1-2.27,3.76A10.93,10.93,0,0,1,326.79,78.55Zm-5.61-.82.17-6h.35l1,6Zm12.44-14.17L332.54,58h1.51L334,63.56Z"/><path class="cls-2" d="M833.79,78.64a5.43,5.43,0,0,1-3.89-1.56,5.18,5.18,0,0,1-1.51-3.84,4,4,0,0,1,.56-2.16,4.85,4.85,0,0,1,2-1.64A21.17,21.17,0,0,1,835,68q2.57-.69,6.59-1.47v1.17l-11.71,2.68.47-.35a10.55,10.55,0,0,0-.34,1.47,8.34,8.34,0,0,0-.13,1.43,4.18,4.18,0,0,0,1.06,3,4,4,0,0,0,3,1.1,9.21,9.21,0,0,0,3.35-.71,17.29,17.29,0,0,0,3.82-2.14V75a18.57,18.57,0,0,1-3.45,2.29A16.63,16.63,0,0,1,833.79,78.64Zm10.15-.22a2.91,2.91,0,0,1-2-.9,4.84,4.84,0,0,1-1.29-2.64L841,61.06a9.45,9.45,0,0,0-6.65-2.51,11.17,11.17,0,0,0-1.82.15,12.19,12.19,0,0,0-1.85.46l.43-.39-.65,5.7a2.43,2.43,0,0,1-1-1.08,3.5,3.5,0,0,1-.36-1.56,3.61,3.61,0,0,1,.8-2.31A5.57,5.57,0,0,1,832,57.9a7.9,7.9,0,0,1,3.13-.6,9.34,9.34,0,0,1,3.78.78,8.66,8.66,0,0,1,3.13,2.29V76.52l4.71-.08a3.74,3.74,0,0,1-.82,1.12,3.67,3.67,0,0,1-1,.65A2.76,2.76,0,0,1,843.94,78.42Z"/><path class="cls-2" d="M959.39,78.25V77.9a15.26,15.26,0,0,1,1.52-.47,14.75,14.75,0,0,1,2-.35l.43-27-2.12-2.2a8.59,8.59,0,0,1,1.53-.8,9.46,9.46,0,0,1,1.67-.5V77.13l3.84.82v.3Zm16.42.35-9.38-11.32L974.6,58h1.25v.3l-8.16,9.34V66.8L977.41,78l-.74.34A5.74,5.74,0,0,1,975.81,78.6Zm-.69-19.79a14.91,14.91,0,0,1-2.16-.32c-.67-.16-1.31-.34-2-.54V57.6h6.87V58Z"/><path class="cls-2" d="M1094,78.51a7.41,7.41,0,0,1-4.34-1.3,8.64,8.64,0,0,1-2.94-3.6,12.79,12.79,0,0,1-1.05-5.34,13.38,13.38,0,0,1,1.12-5.59,9.58,9.58,0,0,1,3.11-3.93,7.53,7.53,0,0,1,4.58-1.45,6.74,6.74,0,0,1,3.58,1,6.91,6.91,0,0,1,2.47,2.59,7.38,7.38,0,0,1,.86,3.76l-.13,2.76c-1.41.21-2.83.37-4.25.5s-3,.22-4.69.28-3.69.09-6,.09V67l13.61-.22.08-2.07a6.18,6.18,0,0,0-1.62-4.41,5.47,5.47,0,0,0-4.17-1.73,8.2,8.2,0,0,0-2.48.41,10.19,10.19,0,0,0-2.4,1.15,14.45,14.45,0,0,0-1.73,3.78,14.62,14.62,0,0,0-.6,4.12,9.81,9.81,0,0,0,2.09,6.7,7,7,0,0,0,5.51,2.38,13.74,13.74,0,0,0,6.48-1.86l.13.3a12.56,12.56,0,0,1-3.59,2.2A9.89,9.89,0,0,1,1094,78.51Z"/><path class="cls-2" d="M1216.23,78.25V77.9a11.21,11.21,0,0,1,3-.9l3.63.9v.35Zm4.1-19.4a12.28,12.28,0,0,1-1.75-.36,10.86,10.86,0,0,1-1.44-.54V57.6h7.13V58Zm-2.2,19V77.6l8.21-11.06h.73L1235,77.43v.39h-1.43l-7.21-10.07h.56l-7.47,10.07Zm8.17-10.07-6.83-9.33V58h1.47l6.09,8.51h-.56l6.26-8.51h1.39v.22l-7,9.5Zm7.17-8.94a13.28,13.28,0,0,1-2-.32c-.62-.16-1.21-.34-1.79-.54V57.6h6.61V58ZM1230,78.25V77.9a14.89,14.89,0,0,1,2.16-.67,13.31,13.31,0,0,1,2.16-.28l2.85,1v.35Z"/><path class="cls-2" d="M190.36,324.27v-.34l1.49-.46a11.66,11.66,0,0,1,2-.36l.39-24.8-2.07-2.2c.51-.29,1-.55,1.51-.78a7.49,7.49,0,0,1,1.51-.52l.17,3.33v25l5,.82v.3Zm9.29-8.12a14.82,14.82,0,0,1-2.57-.24,17.86,17.86,0,0,1-2.79-.71l.65-1a19.18,19.18,0,0,0,2.51.58,14.38,14.38,0,0,0,2.29.2,8.19,8.19,0,0,0,6.39-2.58,10.25,10.25,0,0,0,2.33-7.14,13.44,13.44,0,0,0-.71-4.45,12.58,12.58,0,0,0-2.1-3.76l1.73,1.77a9.67,9.67,0,0,0-6.18-2.59,9.5,9.5,0,0,0-6.09,2.59V298a17,17,0,0,1,2.73-1.87,16.29,16.29,0,0,1,2.85-1.24h.3a8.05,8.05,0,0,1,4.69,1.37,8.75,8.75,0,0,1,3,3.71,14,14,0,0,1-.19,11.12,8.85,8.85,0,0,1-3.53,3.78A10.41,10.41,0,0,1,199.65,316.15Z"/><path class="cls-2" d="M316,315.85v-.35a15,15,0,0,1,1.51-.47,13.84,13.84,0,0,1,2-.35l.39-16.37-2.07-2.2a9.34,9.34,0,0,1,3-1.3l.17,3.33v16.59l3.85.82v.3Zm4.84-17v-.82a14.23,14.23,0,0,1,2.85-2,15.25,15.25,0,0,1,3.07-1.19h.6a8.53,8.53,0,0,1,3.54.73A9.25,9.25,0,0,1,334,298l-1.12.65a8,8,0,0,0-5.66-2.47A10,10,0,0,0,320.82,298.87Zm.73-8.47-.3-.34c.63-.84,1.15-1.47,1.53-1.9a5.83,5.83,0,0,1,1-.89,1.07,1.07,0,0,1,.67-.21,4,4,0,0,1,.65.1l4.67,1.26,2.46-2.25.3.3a19.71,19.71,0,0,1-1.88,2.31,2.16,2.16,0,0,1-1.06.72,2.23,2.23,0,0,1-.86-.09L324,288.16Zm7.39,25.45v-.35a15,15,0,0,1,1.51-.47,13.84,13.84,0,0,1,2-.35l.39-16L334,298v16.72l3.85.82v.3Z"/><path class="cls-2" d="M448.28,315.85v-.35a12.91,12.91,0,0,1,1.66-.51,12.09,12.09,0,0,1,1.88-.31l.39-16.37-2.07-2.2a8.59,8.59,0,0,1,1.53-.8,9.36,9.36,0,0,1,1.66-.5v19.92l3.85.82v.3Zm4.62-29a3.14,3.14,0,0,1,.67.87,2.52,2.52,0,0,1,.33,1,2.46,2.46,0,0,1-.8.65,3.27,3.27,0,0,1-1,.34,3.35,3.35,0,0,1-.66-.82,3.78,3.78,0,0,1-.42-.95,2.93,2.93,0,0,1,.85-.71A3.09,3.09,0,0,1,452.9,286.86Z"/><path class="cls-2" d="M128.54,415.25a8.54,8.54,0,0,1-1.45-.36,12.28,12.28,0,0,1-1.28-.54V414h7.13v.35Zm6.78,19.66-7.61-20.48h1.52l7.12,19.66h-.43l7.43-19.66h1.3l-7.17,18.62c-.15.38-.28.68-.39.91a1.72,1.72,0,0,1-.39.52,1.51,1.51,0,0,1-.54.26ZM144,415.25a23,23,0,0,1-4.92-.9V414h7.13v.35Z"/><path class="cls-2" d="M269,435a8.12,8.12,0,0,1-4.55-1.3,8.51,8.51,0,0,1-3.07-3.63,12.52,12.52,0,0,1-1.1-5.44q0-5.14,2.78-8a9.86,9.86,0,0,1,7.45-2.89,15.65,15.65,0,0,1,2.42.19,20.88,20.88,0,0,1,2.6.59l-.39,1.16a19.86,19.86,0,0,0-4.93-.73,11.8,11.8,0,0,0-3.54.52,13.86,13.86,0,0,0-3.33,1.55l.57-.56a12.63,12.63,0,0,0-1.69,3.71,16.32,16.32,0,0,0-.6,4.45,11.69,11.69,0,0,0,.92,4.89,7.26,7.26,0,0,0,2.53,3.09,6.33,6.33,0,0,0,3.54,1.05,8.18,8.18,0,0,0,3.05-.62,12.15,12.15,0,0,0,3.17-1.93v.83a22.92,22.92,0,0,1-2.61,1.77,15.74,15.74,0,0,1-3,1.34H269Zm1.43,8.07v-.34a11.69,11.69,0,0,1,1.86-.54,17.15,17.15,0,0,1,2-.28l.43-27.43,1.08-.87V442l2.94.82v.3Z"/><path class="cls-2" d="M385.94,415.25a8.54,8.54,0,0,1-1.45-.36,12.28,12.28,0,0,1-1.28-.54V414h7.13v.35Zm6.82,19.66-7.65-20.48h1.52l7.17,19.66h-.43l5.52-14.65.65,1.65-4.62,12a7.94,7.94,0,0,1-.39.91,1.45,1.45,0,0,1-.39.52,1.51,1.51,0,0,1-.54.26C393.39,434.79,393.11,434.85,392.76,434.91Zm4.41-19.66a8.78,8.78,0,0,1-1.45-.36,11.27,11.27,0,0,1-1.27-.54V414h7.12v.35ZM404,434.91l-7.6-20.48h1.51L405,434.09h-.44L412,414.43h1.29l-7.21,18.62c-.15.38-.27.68-.39.91a1.57,1.57,0,0,1-.39.52,1.51,1.51,0,0,1-.54.26Zm8.77-19.66a18,18,0,0,1-2.46-.32c-.81-.16-1.63-.35-2.47-.58V414h7.13v.35Z"/><path class="cls-2" d="M84.33,195.65v-.35a11.21,11.21,0,0,1,3-.9l3.63.9v.35Zm4.11-19.4a11.73,11.73,0,0,1-1.75-.36,10.51,10.51,0,0,1-1.45-.54V175h7.13v.35Zm-2.21,19V195l8.21-11.06h.74l7.9,10.89v.39h-1.42l-7.22-10.07H95l-7.47,10.07Zm8.17-10.07-6.83-9.33v-.39H89l6.09,8.51h-.56l6.26-8.51h1.39v.22l-7,9.5Zm7.17-8.94a12.09,12.09,0,0,1-2-.32c-.62-.16-1.21-.34-1.79-.54V175h6.61v.35Zm-3.46,19.44v-.35a14.89,14.89,0,0,1,2.16-.67,13.31,13.31,0,0,1,2.16-.28l2.85,1v.35Z"/><path class="cls-2" d="M1012,205.65l-.21-.26,3.84-5.75.39-20.13-2.07-2.2a8.59,8.59,0,0,1,1.53-.8,9.22,9.22,0,0,1,1.67-.5v21.08a8.26,8.26,0,0,1-1.34,4.63A16.85,16.85,0,0,1,1012,205.65Zm4.67-37.59a3.14,3.14,0,0,1,.67.87,2.49,2.49,0,0,1,.32,1,2.36,2.36,0,0,1-.8.65,3.22,3.22,0,0,1-1,.34,3.38,3.38,0,0,1-.67-.82,3.74,3.74,0,0,1-.41-1,3,3,0,0,1,.84-.71A3.15,3.15,0,0,1,1016.64,168.06Z"/><path class="cls-2" d="M1144.88,197.05v-.35a13.91,13.91,0,0,1,3.54-.82l.39-16.37-2.07-2.2a9.34,9.34,0,0,1,3-1.3l.17,3.93v16l4.93.82v.3Zm13-19.7a14.42,14.42,0,0,0-8,3.11v-.69a18,18,0,0,1,2.88-2.16,17.66,17.66,0,0,1,3.09-1.51,5.88,5.88,0,0,1,1.16.34,4.84,4.84,0,0,1,1,.56Z"/><path class="cls-2" d="M1270.54,197.05v-.13l14.17-19.4h-11.79l-1,4.88h-.31l-.17-6H1287v.13l-14.13,19.4,13,0,1-5.23h.26l.26,6.31Z"/><path class="cls-2" d="M1405,194.24l.35-14.73-2.08-2.2a10.94,10.94,0,0,1,3.2-1.3v17.63Zm7.26,3.11h-.61a8.37,8.37,0,0,1-3.5-.75,10.47,10.47,0,0,1-3.15-2.36l1.47-.6A8.14,8.14,0,0,0,1412,196a9.75,9.75,0,0,0,6.22-2.59v.82a13.09,13.09,0,0,1-2.81,2A15.14,15.14,0,0,1,1412.26,197.35Zm7.17-2,4.71-.08a4.64,4.64,0,0,1-.82,1.1,3.44,3.44,0,0,1-1,.67,2.71,2.71,0,0,1-1,.21,2.78,2.78,0,0,1-1.41-.39,3.59,3.59,0,0,1-1.16-1.14,5.72,5.72,0,0,1-.76-1.84l.35-14.34-2.08-2.2a10.94,10.94,0,0,1,3.2-1.3Z"/><path class="cls-2" d="M91.46,533.92v-.34A10.93,10.93,0,0,1,93.2,533a11.42,11.42,0,0,1,2-.24,29.44,29.44,0,0,1,.37-5.08,9.65,9.65,0,0,1,1.19-3.43,5,5,0,0,1,2.11-2,7.22,7.22,0,0,1,3.11-.62l.84,0a5.16,5.16,0,0,1,.89.11v1.55a10.73,10.73,0,0,0-1.14-.1l-1.15,0c-.58,0-1.16,0-1.75.07a12.92,12.92,0,0,0-1.75.24,7.84,7.84,0,0,0-1.06,3.34,41.31,41.31,0,0,0-.36,5.9h6.43l-.13,1.12Zm5-.47v18.88l4.32.82v.3H91.8v-.35a11.56,11.56,0,0,1,1.34-.47,12.29,12.29,0,0,1,1.77-.35l.3-18.83Z"/><path class="cls-2" d="M216.08,553.45v-.35a15,15,0,0,1,1.51-.47,15.32,15.32,0,0,1,2-.35l.39-16.37-2.07-2.2a9.34,9.34,0,0,1,3-1.3l.17,3.33v16.59l3.85.82v.3ZM233,536.26a8.09,8.09,0,0,0-5.66-2.47,10,10,0,0,0-6.39,2.68v-.82a14.23,14.23,0,0,1,2.85-2,15.25,15.25,0,0,1,3.07-1.19h.6a8.53,8.53,0,0,1,3.54.73,9.25,9.25,0,0,1,3.11,2.38ZM229,553.45v-.35a15,15,0,0,1,1.51-.47,15.32,15.32,0,0,1,2-.35l.39-16,1.12-.65v16.72l3.85.82v.3Zm16.89-17.19a8.09,8.09,0,0,0-5.66-2.47,10,10,0,0,0-6.39,2.68v-.82a14.23,14.23,0,0,1,2.85-2,15.25,15.25,0,0,1,3.07-1.19h.6a8.53,8.53,0,0,1,3.54.73,9.16,9.16,0,0,1,3.11,2.38ZM242,553.45v-.35a15,15,0,0,1,1.51-.47,15.32,15.32,0,0,1,2-.35l.39-16,1.12-.65v16.72l3.85.82v.3Z"/></g></g></svg>