<?xml version="1.0" encoding="utf-8"?>
<!-- Generator: Adobe Illustrator 24.2.3, SVG Export Plug-In . SVG Version: 6.00 Build 0)  -->
<svg version="1.1" xmlns="http://www.w3.org/2000/svg" xmlns:xlink="http://www.w3.org/1999/xlink" x="0px" y="0px"
	 viewBox="0 0 1470 650" style="enable-background:new 0 0 1470 650;" xml:space="preserve">
<style type="text/css">
	.st0{display:none;}
	.st1{display:inline;fill:#01E0A7;}
	.st2{opacity:0.65;enable-background:new    ;}
	.st3{fill:#01E0A7;}
	.st4{fill:none;}
</style>
<g id="Layer_1" class="st0">
	<path class="st1" d="M454.8,87.3c-2.7,0-4.8-0.6-6.3-1.7s-2.4-2.8-2.3-4.8c0.5-1.1,1.1-2.1,2-2.9c0.9-0.9,1.9-1.4,3-2h0.7
		c-1.6,1.1-2.8,2.2-3.3,3c-0.6,0.9-1,1.6-1,2.4c0,1.4,0.7,2.6,2,3.4c1.3,0.9,3.1,1.2,5.3,1.2c2.5,0,4.6-0.6,6.1-1.6s2.4-2.5,2.4-4.1
		c0-0.6-0.1-1.2-0.4-1.9c-0.3-0.7-0.7-1.3-1.3-1.9H451c-0.5-0.6-0.9-1-1.1-1.6s-0.4-1.1-0.4-1.7s0.1-1.1,0.4-1.7s0.7-1.1,1.1-1.6
		l-0.1,5.2h9.5c0.9,0,1.6,0.2,2.4,0.7c0.7,0.5,1.2,1,1.6,1.7c0.4,0.8,0.6,1.6,0.6,2.6c0,1.4-0.5,2.8-1.3,3.8c-0.9,1-2,1.9-3.6,2.6
		S456.8,87.3,454.8,87.3z M455.1,71.4c-2.4,0-4.2-0.6-5.6-1.8c-1.4-1.2-2.1-2.8-2.1-4.8c0-1.4,0.4-2.8,1-3.9c0.7-1.1,1.7-2,2.9-2.7
		s2.8-1,4.4-1c2.4,0,4.3,0.6,5.7,1.8c1.4,1.2,2.2,2.8,2.2,4.8c0,1.5-0.4,2.8-1.1,3.9c-0.8,1.1-1.8,2-3,2.6
		C458.3,71.1,456.8,71.4,455.1,71.4z M455.1,70.1c2.3,0,4-0.6,5.3-1.6s2-2.6,2-4.4c0-1.8-0.7-3.1-1.9-4.2c-1.2-1-2.9-1.5-4.9-1.5
		c-0.9,0-1.6,0.1-2.6,0.2c-0.9,0.2-1.7,0.4-2.6,0.7c-0.7,1-1.1,2.1-1.4,2.9c-0.3,0.9-0.5,1.7-0.5,2.4c0,1.6,0.6,2.9,1.8,3.9
		C451.6,69.7,453.2,70.1,455.1,70.1z M461.2,59.6c-0.1-0.4-0.2-0.9-0.3-1.2c-0.1-0.4-0.1-0.8-0.1-1.1c0-1,0.3-1.8,1-2.4
		c0.6-0.5,1.5-0.8,2.7-0.8c0.3,0,0.7,0,1,0.1c0.4,0,0.8,0.1,1.2,0.2l-0.2,1.2h-4.2l-0.9,4H461.2z"/>
	<path class="st1" d="M194,78.4V78c0.5-0.2,0.9-0.3,1.5-0.5s1.2-0.3,2-0.4l0.5-27.3l-2.1-2.2c0.5-0.3,1-0.6,1.5-0.8s1-0.4,1.7-0.5
		v30.8L203,78v0.3L194,78.4L194,78.4z M198.9,61.3v-0.9c0.9-0.9,1.9-1.4,2.9-2c0.9-0.5,2-1,3-1.2c0.1,0,0.2,0,0.3,0s0.2,0,0.3,0
		c1.2,0,2.5,0.3,3.6,0.8s2.2,1.2,3.1,2.4L211,61c-1.7-1.6-3.6-2.5-5.7-2.5C203.2,58.6,201,59.5,198.9,61.3z M207.1,78.4V78
		c0.5-0.2,0.9-0.3,1.5-0.5s1.2-0.3,2-0.4L211,61l1.1-0.7v16.8L216,78v0.3L207.1,78.4L207.1,78.4z"/>
	<path class="st1" d="M707.9,77.6l0.4-27.6l-2-2.3c0.5-0.3,1-0.6,1.5-0.8s1-0.4,1.6-0.5v31.2C709.4,77.6,707.9,77.6,707.9,77.6z
		 M707.9,77.6l1-0.9c0.9,0.3,1.7,0.5,2.6,0.6c0.9,0.1,1.6,0.2,2.3,0.2c2.8,0,4.8-0.9,6.5-2.6c1.6-1.7,2.4-4.1,2.4-7.2
		c0-1.6-0.2-3.1-0.8-4.5c-0.6-1.3-1.1-2.7-2.1-3.8l1.7,1.8c-2.1-1.7-4.2-2.7-6.2-2.7s-4.1,0.9-6.2,2.7v-0.9c0.9-0.8,1.8-1.4,2.8-1.9
		s1.9-1,2.9-1.2c0.1,0,0.1,0,0.2,0s0.1,0,0.1,0c1.8,0,3.4,0.5,4.8,1.3c1.3,1,2.4,2.2,3,3.7c0.7,1.5,1,3.3,1,5.3
		c0,2.3-0.4,4.2-1.2,5.9c-0.9,1.7-2,2.9-3.5,3.8s-3.3,1.3-5.4,1.3c-0.9,0-1.8-0.1-2.8-0.3C709.9,78.2,708.9,77.9,707.9,77.6z"/>
	<path class="st1" d="M569.2,86.4l0.1-1.2l7,0.5c0.8-1,1.4-1.9,2-2.9c0.6-0.9,1-1.8,1.5-2.9s1-2.3,1.6-3.8l6.8-18h1.3l-7.1,18.5
		c-1.4,3.7-2.9,6.5-4.3,8.2c-1.4,1.7-3.1,2.6-5.1,2.6c-0.6,0-1.1-0.1-1.8-0.2C570.7,86.9,570,86.7,569.2,86.4z M573.4,58.8
		c-0.5-0.1-1-0.2-1.4-0.4s-0.9-0.4-1.2-0.6v-0.4h7.1v0.4L573.4,58.8z M579.9,77.8L572.5,58h1.5l7.1,19.5L579.9,77.8z M589,58.8
		c-0.9-0.1-1.7-0.2-2.5-0.3c-0.9-0.2-1.6-0.4-2.5-0.6v-0.4h7.1V58L589,58.8z"/>
	<path class="st1" d="M327.3,78.7c-0.9,0-1.8-0.1-2.8-0.2s-1.9-0.4-2.9-0.7l0.5-1.3c1.3,0.3,2.7,0.5,3.9,0.7
		c1.3,0.2,2.6,0.2,3.8,0.2c0.5,0,1,0,1.4-0.1c0.5,0,0.9-0.1,1.4-0.1l-1.4,0.3c0.8-0.2,1.4-0.7,2.1-1.4s0.9-1.5,0.9-2.4
		s-0.3-1.5-0.9-2.2s-1.3-1.1-2.3-1.6s-1.9-1-2.9-1.4c-1-0.5-2-1-2.9-1.5c-1-0.6-1.6-1.2-2.3-2c-0.6-0.8-0.9-1.7-0.9-2.8
		c0-1.6,0.7-2.8,2.1-3.7s3.2-1.3,5.4-1.3c0.8,0,1.5,0.1,2.4,0.2c0.9,0.1,1.7,0.3,2.6,0.5l-0.3,1.4c-1.2-0.3-2.4-0.5-3.3-0.7
		c-1-0.1-2.1-0.2-3.1-0.2c-0.5,0-1,0-1.4,0c-0.5,0-1,0.1-1.4,0.1l0.8-0.2c-0.7,0.3-1.2,0.8-1.6,1.4s-0.6,1.3-0.6,2.1
		c0,0.9,0.3,1.7,0.9,2.4s1.3,1.2,2.2,1.7c0.9,0.5,1.9,0.9,2.9,1.4s2,0.9,2.9,1.5s1.6,1.1,2.2,1.9s0.9,1.6,0.9,2.7
		c0,1.6-0.8,2.8-2.3,3.8C331.5,78.2,329.6,78.7,327.3,78.7z M321.7,77.8l0.2-6.1h0.4l1,6.1H321.7z M334.1,63.6l-1-5.6h1.5l-0.1,5.6
		H334.1z"/>
	<path class="st1" d="M830.8,78.4V78c0.5-0.2,0.9-0.3,1.5-0.5s1.2-0.3,2.1-0.4l0.5-27.3l-2.1-2.2c0.5-0.3,1-0.6,1.5-0.8
		s1.1-0.4,1.7-0.5v30.8l3.9,0.9v0.3L830.8,78.4L830.8,78.4z M835.7,61.3v-0.9c1-0.9,1.9-1.4,2.8-2c1-0.5,2-1,3-1.2
		c0.1,0,0.2,0,0.3,0s0.2,0,0.3,0c1.2,0,2.5,0.3,3.6,0.8s2.2,1.2,3.1,2.4l-1.1,0.7c-1.7-1.6-3.6-2.5-5.7-2.5
		C840,58.6,837.8,59.5,835.7,61.3z M843.8,78.4V78c0.5-0.2,0.9-0.3,1.5-0.5s1.2-0.3,2.1-0.4l0.4-16.2l1.1-0.7V77l3.9,0.9v0.3
		L843.8,78.4L843.8,78.4z"/>
	<path class="st1" d="M964,78.4V78c0.5-0.2,1-0.3,1.5-0.5c0.6-0.2,1.2-0.3,2.1-0.4l0.5-27.3l-2.1-2.2c0.5-0.3,1-0.6,1.5-0.8
		s1.1-0.4,1.7-0.5v30.8l3.9,0.9v0.3L964,78.4L964,78.4z M980.5,78.7l-9.4-11.4l8.3-9.3h1.2v0.3l-8.3,9.4v-0.9l9.8,11.2
		c-0.2,0.1-0.5,0.2-0.8,0.4C981,78.5,980.8,78.6,980.5,78.7z M979.8,58.8c-0.8-0.1-1.5-0.2-2.2-0.3c-0.7-0.2-1.3-0.4-2-0.6v-0.4h6.9
		V58L979.8,58.8z"/>
	<path class="st1" d="M1089.9,78.4V78c0.5-0.2,1-0.3,1.5-0.5s1.2-0.3,2.1-0.4l0.4-16.4l-2.1-2.2c1-0.6,1.9-1,3-1.3l0.2,3.3v16.7
		l3.9,0.9v0.3H1089.9L1089.9,78.4z M1094.8,61.3v-0.9c1-0.9,1.9-1.4,2.9-2c0.9-0.5,2-1,3-1.2c0.1,0,0.2,0,0.3,0s0.2,0,0.3,0
		c1.2,0,2.5,0.3,3.6,0.8s2.2,1.2,3.1,2.4l-1.1,0.7c-1.7-1.6-3.6-2.5-5.7-2.5C1099,58.6,1096.9,59.5,1094.8,61.3z M1095.5,52.8
		l-0.3-0.4c0.7-0.9,1.1-1.4,1.5-1.9s0.7-0.8,1-0.9s0.5-0.2,0.7-0.2s0.4,0.1,0.7,0.1l4.7,1.2l2.5-2.3l0.3,0.3
		c-0.9,1.1-1.4,1.9-1.9,2.4s-0.8,0.7-1,0.8s-0.6,0-0.9-0.1l-4.7-1.2L1095.5,52.8z M1102.9,78.4V78c0.5-0.2,0.9-0.3,1.5-0.5
		s1.2-0.3,2.1-0.4l0.4-16.2l1.1-0.7V77l3.9,0.9v0.3L1102.9,78.4L1102.9,78.4z"/>
	<path class="st1" d="M1222.4,78.4V78c1-0.5,1.9-0.8,3-0.9l3.6,0.9v0.4H1222.4L1222.4,78.4z M1226.5,58.8c-0.7-0.1-1.2-0.2-1.7-0.4
		c-0.6-0.2-1-0.4-1.4-0.6v-0.4h7.2v0.4L1226.5,58.8z M1224.3,77.9v-0.2l8.3-11.1h0.8l8,10.9v0.4h-1.4l-7.3-10.2h0.6l-7.5,10.2
		C1225.7,77.9,1224.3,77.9,1224.3,77.9z M1232.5,67.9l-6.8-9.4v-0.4h1.5l6.1,8.6h-0.6l6.3-8.6h1.4v0.2l-7.1,9.6H1232.5z
		 M1239.7,58.8c-0.7-0.1-1.3-0.2-2-0.3c-0.7-0.2-1.2-0.4-1.8-0.6v-0.4h6.7V58L1239.7,58.8z M1236.3,78.4V78c0.8-0.3,1.4-0.5,2.2-0.7
		s1.4-0.3,2.2-0.3l2.8,0.9v0.4L1236.3,78.4L1236.3,78.4z"/>
	<path class="st1" d="M190.4,317.5v-0.4c0.5-0.2,1-0.4,1.5-0.5c0.6-0.1,1.2-0.3,2-0.4l0.5-27.2l-2.1-2.2c0.5-0.3,1-0.6,1.5-0.9
		s1-0.4,1.7-0.5v30.8l3.9,0.9v0.3h-9L190.4,317.5L190.4,317.5z M206.9,317.9l-9.4-11.4l8.2-9.3h1.2v0.3l-8.2,9.4V306l9.8,11.2
		c-0.2,0.1-0.5,0.2-0.8,0.4C207.6,317.6,207.2,317.8,206.9,317.9z M206.2,298c-0.8-0.1-1.5-0.2-2.2-0.3c-0.7-0.2-1.3-0.4-2-0.6v-0.4
		h6.9v0.4L206.2,298z"/>
	<path class="st1" d="M316.4,317.5v-0.4c0.5-0.2,1-0.4,1.5-0.5s1.2-0.3,2-0.4l0.4-16.4l-2.1-2.2c1-0.6,1.9-1,3-1.3l0.2,3.3v16.7
		l3.9,0.9v0.3H316.4L316.4,317.5z M321.3,300.4v-0.9c1-0.9,1.9-1.4,2.9-2c1-0.5,2-1,3-1.2c0.1,0,0.2,0,0.3,0c0.1,0,0.2,0,0.3,0
		c1.2,0,2.5,0.3,3.6,0.8s2.2,1.3,3.1,2.4l-1.1,0.7c-1.7-1.6-3.6-2.5-5.7-2.5C325.5,297.8,323.4,298.6,321.3,300.4z M321.9,291.9
		l-0.3-0.4c0.7-0.9,1.1-1.4,1.5-1.9s0.7-0.8,1-0.9c0.3-0.2,0.5-0.2,0.7-0.2s0.4,0.1,0.7,0.1l4.7,1.2l2.5-2.3l0.3,0.3
		c-0.9,1.1-1.4,1.9-1.9,2.4s-0.9,0.7-1,0.8c-0.2,0.1-0.6,0-0.9-0.1l-4.7-1.2L321.9,291.9z M329.4,317.5v-0.4c0.5-0.2,1-0.4,1.5-0.5
		c0.6-0.1,1.2-0.3,2-0.4l0.4-16.1l1.1-0.7v16.8l3.9,0.9v0.3L329.4,317.5L329.4,317.5z"/>
	<path class="st1" d="M448.9,317.5v-0.4c1-0.5,1.9-0.8,3-1l3.6,1v0.4H448.9z M453,298c-0.7-0.1-1.2-0.2-1.8-0.4
		c-0.6-0.2-1-0.4-1.4-0.6v-0.4h7.1v0.4L453,298z M450.8,317v-0.2l8.3-11.1h0.8l8,10.9v0.4h-1.4l-7.2-10.2h0.6l-7.5,10.2L450.8,317
		L450.8,317z M459,307l-6.8-9.4v-0.4h1.4l6.2,8.5h-0.6l6.3-8.5h1.4v0.2l-7.1,9.6L459,307L459,307z M466.2,298
		c-0.7-0.1-1.3-0.2-2-0.3c-0.7-0.2-1.2-0.4-1.8-0.6v-0.4h6.6v0.4L466.2,298z M462.7,317.5v-0.4c0.8-0.3,1.4-0.5,2.2-0.7
		c0.8-0.2,1.4-0.3,2.2-0.3l2.9,1v0.4H462.7L462.7,317.5z"/>
	<path class="st1" d="M126.1,437v-0.3c0.5-0.2,0.9-0.4,1.5-0.5s1.2-0.3,2.1-0.4l0.5-27.2l-2.1-2.2c0.5-0.3,1-0.6,1.5-0.9
		c0.6-0.2,1.1-0.4,1.7-0.5v31l3.9,0.9v0.3L126.1,437L126.1,437z M131,420v-0.9c1-0.9,1.9-1.4,2.9-2s2-1,3-1.2c0.1,0,0.2,0,0.3,0
		s0.2,0,0.3,0c1.2,0,2.5,0.3,3.6,0.8s2.2,1.3,3.1,2.4l-1.1,0.7c-1.7-1.6-3.6-2.5-5.7-2.5C135.3,417.3,133.1,418.2,131,420z
		 M139.2,437v-0.3c0.5-0.2,0.9-0.4,1.5-0.5s1.2-0.3,2.1-0.4l0.4-16.2l1.1-0.7v16.8l3.9,0.9v0.3h-9V437z"/>
	<path class="st1" d="M259.2,437v-0.3c0.5-0.2,1-0.4,1.5-0.5s1.2-0.3,2-0.4l0.5-27.2l-2.1-2.2c0.5-0.3,1-0.6,1.5-0.9s1-0.4,1.7-0.5
		v31l3.9,0.9v0.3L259.2,437L259.2,437z M275.8,437.4l-9.4-11.4l8.2-9.3h1.2v0.3l-8.2,9.4v-0.9l9.8,11.2c-0.2,0.1-0.5,0.2-0.8,0.4
		C276.3,437.2,276.1,437.3,275.8,437.4z M275.1,417.6c-0.8-0.1-1.5-0.2-2.2-0.3c-0.7-0.2-1.3-0.4-2-0.6v-0.4h6.9v0.4L275.1,417.6z"
		/>
	<path class="st1" d="M385.2,437v-0.3c0.5-0.2,0.9-0.4,1.5-0.5s1.2-0.3,2-0.4l0.4-16.4l-2.1-2.2c1-0.6,1.9-1,3-1.3l0.2,3.3V436
		l3.9,0.9v0.3L385.2,437L385.2,437z M390.1,420v-0.9c1-0.9,1.9-1.4,2.9-2c0.9-0.5,2-1,3-1.2c0.1,0,0.2,0,0.3,0c0.1,0,0.2,0,0.3,0
		c1.2,0,2.5,0.3,3.6,0.8s2.2,1.3,3.1,2.4l-1.1,0.7c-1.7-1.6-3.6-2.5-5.7-2.5C394.4,417.3,392.2,418.2,390.1,420z M390.8,411.5
		l-0.3-0.4c0.7-0.9,1.1-1.4,1.5-1.9s0.7-0.8,1-0.9c0.3-0.2,0.5-0.2,0.7-0.2s0.4,0.1,0.7,0.1l4.7,1.2l2.5-2.3l0.3,0.3
		c-0.9,1.1-1.4,1.9-1.9,2.4s-0.9,0.7-1,0.8c-0.2,0.1-0.6,0-0.9-0.1l-4.7-1.2L390.8,411.5z M398.2,437v-0.3c0.5-0.2,0.9-0.4,1.5-0.5
		s1.2-0.3,2-0.4l0.4-16.2l1.1-0.7v16.8l3.9,0.9v0.3h-8.9V437z"/>
	<path class="st1" d="M517.7,437v-0.3c1-0.5,1.9-0.8,3-1l3.6,1v0.4L517.7,437L517.7,437z M521.8,417.6c-0.7-0.1-1.2-0.2-1.8-0.4
		s-1-0.4-1.4-0.6v-0.4h7.1v0.4L521.8,417.6z M519.6,436.7v-0.2l8.3-11.1h0.8l8,10.9v0.4h-1.4l-7.3-10.2h0.6l-7.5,10.2L519.6,436.7
		L519.6,436.7z M527.8,426.5l-6.8-9.4v-0.4h1.4l6.1,8.6h-0.6l6.3-8.6h1.4v0.2l-7.1,9.6L527.8,426.5L527.8,426.5z M535,417.6
		c-0.7-0.1-1.3-0.2-2-0.3c-0.7-0.2-1.2-0.4-1.8-0.6v-0.4h6.7v0.4L535,417.6z M531.6,437v-0.3c0.8-0.3,1.4-0.5,2.2-0.7
		s1.4-0.3,2.2-0.3l2.9,1v0.4L531.6,437L531.6,437z"/>
	<path class="st1" d="M1017.3,197.9v-0.4c0.5-0.2,1-0.4,1.5-0.5c0.6-0.1,1.2-0.3,2.1-0.4l0.5-27.2l-2.1-2.2c0.5-0.3,1-0.6,1.5-0.9
		c0.5-0.3,1.1-0.4,1.7-0.5v30.8l3.9,0.9v0.3L1017.3,197.9L1017.3,197.9z M1022.3,180.8V180c1-0.9,1.9-1.4,2.8-2c1-0.5,2-0.9,3-1.2
		c0.1,0,0.2,0,0.3,0s0.2,0,0.3,0c1.2,0,2.5,0.3,3.6,0.8s2.2,1.3,3.1,2.4l-1.1,0.7c-1.7-1.6-3.6-2.5-5.7-2.5
		C1026.6,178.2,1024.4,179.1,1022.3,180.8z M1030.4,197.9v-0.4c0.5-0.2,1-0.4,1.5-0.5c0.6-0.1,1.2-0.3,2.1-0.4l0.4-16.1l1.1-0.7
		v16.8l3.9,0.9v0.3L1030.4,197.9L1030.4,197.9z"/>
	<path class="st1" d="M1150.5,197.9v-0.4c0.5-0.2,0.9-0.4,1.5-0.5s1.2-0.3,2.1-0.4l0.5-27.2l-2.1-2.2c0.5-0.3,1-0.6,1.5-0.9
		c0.5-0.3,1.1-0.4,1.7-0.5v30.8l3.9,0.9v0.3L1150.5,197.9L1150.5,197.9z M1167.1,198.3l-9.4-11.4l8.3-9.3h1.2v0.3l-8.3,9.4v-0.9
		l9.8,11.2c-0.2,0.1-0.5,0.2-0.8,0.4C1167.6,198.1,1167.3,198.2,1167.1,198.3z M1166.4,178.4c-0.8-0.1-1.5-0.2-2.2-0.3
		c-0.7-0.2-1.3-0.4-2-0.6v-0.4h6.9v0.4L1166.4,178.4z"/>
	<path class="st1" d="M1276.5,197.9v-0.4c0.5-0.2,0.9-0.4,1.5-0.5s1.2-0.3,2.1-0.4l0.4-16.4l-2.1-2.2c0.9-0.6,1.9-1,3-1.3l0.2,3.3
		v16.7l3.9,0.9v0.3L1276.5,197.9L1276.5,197.9z M1281.4,180.8V180c0.9-0.9,1.9-1.4,2.8-2c1-0.5,2-0.9,3-1.2c0.1,0,0.2,0,0.3,0
		s0.2,0,0.3,0c1.2,0,2.5,0.3,3.6,0.8s2.2,1.3,3.1,2.4l-1.1,0.7c-1.7-1.6-3.6-2.5-5.7-2.5C1285.7,178.2,1283.5,179.1,1281.4,180.8z
		 M1282.1,172.4l-0.3-0.4c0.7-0.9,1.1-1.5,1.5-1.9c0.4-0.5,0.7-0.8,0.9-0.9c0.3-0.2,0.5-0.2,0.7-0.2s0.4,0.1,0.7,0.1l4.7,1.2
		l2.5-2.3l0.3,0.3c-0.9,1.1-1.4,1.9-1.9,2.3c-0.5,0.5-0.8,0.7-1,0.8s-0.6,0-0.9-0.1l-4.7-1.2L1282.1,172.4z M1289.6,197.9v-0.4
		c0.5-0.2,0.9-0.4,1.5-0.5s1.2-0.3,2.1-0.4l0.4-16.1l1.1-0.7v16.8l3.9,0.9v0.3L1289.6,197.9L1289.6,197.9z"/>
	<path class="st1" d="M98.9,565.6c-2.7,0-4.8-0.6-6.3-1.7c-1.6-1.1-2.4-2.8-2.3-4.8c0.5-1.1,1.1-2.1,2.1-2.8c0.9-0.9,1.9-1.4,3-2
		h0.7c-1.6,1.1-2.8,2.2-3.3,3c-0.7,0.9-0.9,1.6-0.9,2.4c0,1.4,0.7,2.6,2.1,3.4c1.4,0.9,3.1,1.2,5.3,1.2c2.5,0,4.6-0.5,6.1-1.6
		s2.4-2.5,2.4-4.1c0-0.6-0.1-1.2-0.4-1.9s-0.7-1.3-1.2-1.9h-11c-0.5-0.5-0.9-1-1.1-1.6c-0.3-0.6-0.4-1.1-0.4-1.7
		c0-0.6,0.1-1.1,0.4-1.7c0.3-0.6,0.7-1.1,1.1-1.6l-0.1,5.2h9.5c0.9,0,1.6,0.2,2.3,0.7c0.7,0.5,1.2,1,1.6,1.8s0.6,1.6,0.6,2.6
		c0,1.4-0.4,2.8-1.2,3.8s-2.1,1.9-3.6,2.6C102.6,565.3,100.9,565.6,98.9,565.6z M99.2,549.6c-2.4,0-4.2-0.6-5.6-1.8
		s-2.1-2.9-2.1-4.8c0-1.4,0.4-2.8,1-3.9c0.7-1.1,1.7-2,2.9-2.7c1.2-0.7,2.8-1,4.4-1c2.4,0,4.3,0.6,5.7,1.8c1.5,1.2,2.2,2.8,2.2,4.8
		c0,1.4-0.4,2.8-1.1,3.9c-0.8,1.1-1.7,2-3,2.6C102.3,549.3,100.8,549.6,99.2,549.6z M99.2,548.4c2.2,0,4-0.6,5.3-1.6s2-2.6,2-4.4
		c0-1.8-0.7-3.1-1.9-4.2c-1.2-0.9-2.9-1.5-4.9-1.5c-0.9,0-1.6,0.1-2.6,0.2s-1.7,0.4-2.6,0.7c-0.7,1-1.1,2.1-1.4,2.9
		c-0.3,0.9-0.5,1.7-0.5,2.4c0,1.6,0.6,2.9,1.8,4C95.7,547.9,97.3,548.4,99.2,548.4z M105.2,537.8c-0.1-0.4-0.2-0.9-0.3-1.2
		c-0.1-0.4-0.1-0.8-0.1-1.1c0-1,0.3-1.8,1-2.4c0.7-0.6,1.5-0.8,2.7-0.8c0.3,0,0.7,0,1,0.1c0.4,0,0.8,0.1,1.2,0.2l-0.2,1.2h-4.2
		l-0.9,4H105.2L105.2,537.8z"/>
	<path class="st1" d="M213.3,564.7l0.1-1.2l7,0.5c0.8-1,1.4-1.9,2-2.8s1-1.9,1.5-2.9s1-2.4,1.5-3.8l6.8-18h1.3l-7.1,18.5
		c-1.4,3.7-2.9,6.5-4.3,8.2c-1.4,1.7-3.1,2.6-5.1,2.6c-0.6,0-1.1-0.1-1.8-0.2C214.7,565.1,214,564.9,213.3,564.7z M217.4,537.2
		c-0.6-0.1-1-0.2-1.4-0.4c-0.5-0.2-0.9-0.4-1.3-0.6v-0.4h7.2v0.4L217.4,537.2z M223.9,556.2l-7.4-19.9h1.5l7.1,19.5L223.9,556.2z
		 M233,537.2c-0.9-0.1-1.7-0.2-2.5-0.3c-0.9-0.2-1.6-0.4-2.5-0.6v-0.4h7.2v0.4L233,537.2z"/>
	<path class="st1" d="M1350.5,58.8c-0.6-0.1-1-0.2-1.4-0.4s-0.9-0.4-1.2-0.6v-0.4h7.2v0.4L1350.5,58.8z M1357.4,78.6l-7.7-20.6h1.5
		l7.2,19.8h-0.5l5.5-14.7l0.7,1.6l-4.7,12.1c-0.2,0.4-0.3,0.7-0.4,1c-0.1,0.2-0.3,0.4-0.4,0.6s-0.3,0.2-0.6,0.3
		C1358,78.5,1357.8,78.6,1357.4,78.6z M1361.8,58.8c-0.6-0.1-1-0.2-1.4-0.4s-0.9-0.4-1.2-0.6v-0.4h7.2v0.4L1361.8,58.8z
		 M1368.7,78.6L1361,58h1.5l7.2,19.8h-0.5l7.5-19.8h1.3l-7.3,18.7c-0.2,0.4-0.3,0.7-0.4,1c-0.1,0.2-0.3,0.4-0.4,0.6
		s-0.3,0.2-0.6,0.3C1369.3,78.5,1369,78.6,1368.7,78.6z M1377.5,58.8c-0.9-0.1-1.7-0.2-2.5-0.3c-0.9-0.2-1.6-0.4-2.5-0.6v-0.4h7.2
		V58L1377.5,58.8z"/>
	<path class="st1" d="M91.4,204.5c-2.7,0-4.8-0.6-6.3-1.7c-1.5-1.1-2.4-2.8-2.3-4.8c0.5-1.1,1.1-2.1,2-2.9c0.9-0.9,1.9-1.4,3-2h0.7
		c-1.6,1.1-2.8,2.2-3.3,3c-0.6,0.9-1,1.6-1,2.4c0,1.4,0.7,2.6,2,3.4c1.3,0.9,3.1,1.2,5.3,1.2c2.5,0,4.6-0.6,6.1-1.6s2.4-2.5,2.4-4.1
		c0-0.6-0.1-1.2-0.4-1.9s-0.7-1.3-1.3-1.9H87.6c-0.5-0.6-0.9-1-1.1-1.6s-0.4-1.1-0.4-1.7c0-0.6,0.1-1.1,0.4-1.7
		c0.3-0.6,0.7-1.1,1.1-1.6l-0.1,5.2H97c0.9,0,1.6,0.2,2.4,0.7c0.7,0.5,1.2,1,1.6,1.7c0.4,0.8,0.6,1.6,0.6,2.6c0,1.4-0.5,2.8-1.3,3.8
		c-0.9,1-2,1.9-3.6,2.6S93.4,204.5,91.4,204.5z M91.7,188.6c-2.4,0-4.2-0.6-5.6-1.8S84,184,84,182c0-1.4,0.4-2.8,1-3.9
		c0.7-1.1,1.7-2,2.9-2.7c1.2-0.7,2.8-1,4.4-1c2.4,0,4.3,0.6,5.7,1.8c1.4,1.2,2.2,2.8,2.2,4.8c0,1.5-0.4,2.8-1.1,3.9
		c-0.8,1.1-1.8,2-3,2.6C94.9,188.3,93.4,188.6,91.7,188.6z M91.7,187.3c2.3,0,4-0.6,5.3-1.6s2-2.6,2-4.4s-0.7-3.1-1.9-4.2
		c-1.2-1-2.9-1.5-4.9-1.5c-0.9,0-1.6,0.1-2.6,0.2c-0.9,0.2-1.7,0.4-2.6,0.7c-0.7,1-1.1,2.1-1.4,2.9c-0.3,0.9-0.5,1.7-0.5,2.4
		c0,1.6,0.6,2.9,1.8,3.9C88.2,186.9,89.8,187.3,91.7,187.3z M97.8,176.8c-0.1-0.4-0.2-0.9-0.3-1.2c-0.1-0.4-0.1-0.8-0.1-1.1
		c0-1,0.3-1.8,1-2.4c0.6-0.5,1.5-0.8,2.7-0.8c0.3,0,0.7,0,1,0.1c0.4,0,0.8,0.1,1.2,0.2l-0.2,1.2h-4.2l-0.9,4H97.8z"/>
</g>
<g id="Capa_2">
	<g>
		<g class="st2">
			<g>
				<g>
					<g>
						<path class="st3" d="M453.5791,87.1494c-2.6206,0-4.7085-0.5693-6.2637-1.7065c-1.5552-1.1382-2.3188-2.7148-2.2896-4.7305
							c0.4893-1.0947,1.166-2.0454,2.0303-2.8511c0.8638-0.8062,1.8716-1.4541,3.0239-1.9443h0.6914
							c-1.6133,1.1816-2.7217,2.1816-3.3267,3.0024c-0.6045,0.8208-0.9072,1.6055-0.9072,2.3545
							c0,1.4106,0.6763,2.5415,2.0303,3.3911c1.3535,0.8491,3.1108,1.2744,5.2705,1.2744c2.4766,0,4.4995-0.5259,6.0698-1.5767
							c1.5693-1.0518,2.3545-2.4126,2.3545-4.0825c0-0.5762-0.1372-1.2168-0.4106-1.9224
							c-0.2739-0.7051-0.6987-1.3457-1.2744-1.9224h-10.7998c-0.4902-0.5186-0.8643-1.0649-1.1235-1.6416
							c-0.2588-0.5757-0.3887-1.1372-0.3887-1.6846c0-0.5762,0.1299-1.145,0.3887-1.7065c0.2593-0.5615,0.6333-1.1016,1.1235-1.6201
							l-0.0864,5.2271h9.4175c0.8638,0,1.6343,0.2163,2.311,0.6484c0.6768,0.4316,1.21,1.0151,1.5986,1.7495
							s0.583,1.5767,0.583,2.5269c0,1.4399-0.4253,2.7002-1.2744,3.7803c-0.8496,1.0801-2.0303,1.9224-3.5425,2.5273
							C457.2729,86.8467,455.5376,87.1494,453.5791,87.1494z M453.8384,71.2949c-2.3325,0-4.1978-0.5977-5.5942-1.793
							c-1.3975-1.1948-2.0952-2.8003-2.0952-4.8169c0-1.4688,0.3525-2.7573,1.0586-3.8662
							c0.7051-1.1084,1.6846-1.9722,2.9375-2.5923c1.2524-0.6187,2.6997-0.9287,4.3413-0.9287c2.333,0,4.2339,0.605,5.7026,1.8145
							s2.2031,2.8228,2.2031,4.8384c0,1.4688-0.3672,2.7583-1.1016,3.8667c-0.7344,1.1089-1.7427,1.9653-3.0239,2.5703
							C456.9849,70.9922,455.5083,71.2949,453.8384,71.2949z M453.8818,70.085c2.2173,0,3.9741-0.5396,5.27-1.6196
							c1.2964-1.0801,1.9443-2.5127,1.9443-4.2983c0-1.7563-0.6196-3.1323-1.8579-4.126s-2.8799-1.4902-4.9248-1.4902
							c-0.8066,0-1.6489,0.0723-2.5269,0.2158c-0.8789,0.1445-1.7354,0.3608-2.5703,0.6484
							c-0.6343,1.0654-1.0952,2.0449-1.3828,2.9375c-0.2881,0.8931-0.4316,1.6846-0.4316,2.376c0,1.6416,0.5898,2.9448,1.771,3.9097
							C450.3535,69.603,451.9229,70.085,453.8818,70.085z M459.8433,59.5874c-0.1152-0.4028-0.209-0.8057-0.2808-1.2095
							c-0.0723-0.4028-0.1079-0.7915-0.1079-1.1665c0-1.0366,0.3022-1.8145,0.9072-2.3325
							c0.6045-0.5186,1.4971-0.7778,2.6782-0.7778c0.3164,0,0.6548,0.0215,1.0151,0.0649c0.3599,0.043,0.7563,0.1079,1.188,0.1943
							l-0.2158,1.2095h-4.1904l-0.8208,4.0176H459.8433z"/>
					</g>
					<g>
						<path class="st3" d="M194.3936,78.25v-0.3457c0.4604-0.1729,0.9644-0.3306,1.5117-0.4751
							c0.5469-0.1436,1.2241-0.2593,2.0308-0.3457l0.4316-27.043l-2.1167-2.2031c0.4893-0.3169,1.0005-0.5835,1.5337-0.7993
							c0.5327-0.2163,1.0869-0.3813,1.6631-0.4971V77.127l3.8447,0.8208V78.25H194.3936z M199.2319,61.2725v-0.8208
							c0.9214-0.8062,1.8716-1.4614,2.8511-1.9658c0.979-0.5034,2.0015-0.8994,3.0674-1.188c0.1147,0,0.2227,0,0.3237,0
							c0.1006,0,0.1943,0,0.2808,0c1.2671,0,2.4478,0.2451,3.5425,0.7344c1.0942,0.4902,2.1313,1.2822,3.1104,2.376l-1.123,0.6484
							c-1.728-1.6416-3.6147-2.4624-5.6592-2.4624C203.4937,58.5942,201.3628,59.4868,199.2319,61.2725z M207.3535,78.25v-0.3457
							c0.4604-0.1729,0.9644-0.3306,1.5122-0.4751c0.5464-0.1436,1.2236-0.2593,2.0303-0.3457l0.3887-16.0269l1.123-0.6484V77.127
							l3.8452,0.8208V78.25H207.3535z"/>
					</g>
					<g>
						<path class="st3" d="M704.9741,77.4722l0.3887-27.4316l-1.9443-2.2466c0.5186-0.3164,1.0225-0.5757,1.5127-0.7773
							c0.4893-0.2012,1.0078-0.3599,1.5547-0.4756v30.9312H704.9741z M704.9741,77.4722l0.9932-0.8638
							c0.8643,0.2593,1.6992,0.4536,2.5059,0.583c0.8057,0.1299,1.5693,0.1948,2.29,0.1948c2.7061,0,4.8379-0.8569,6.3936-2.5708
							c1.5547-1.7129,2.332-4.0962,2.332-7.1494c0-1.6128-0.2373-3.0957-0.7129-4.4497c-0.4746-1.3535-1.1738-2.606-2.0947-3.7583
							l1.7275,1.771c-2.0732-1.728-4.1328-2.5918-6.1768-2.5918c-2.0166,0-4.0469,0.8638-6.0918,2.5918v-0.8638
							c0.8926-0.7485,1.7998-1.375,2.7217-1.8794c0.9219-0.5034,1.8721-0.9136,2.8516-1.231c0.0566,0,0.1143,0,0.1729,0
							c0.0566,0,0.1006,0,0.1289,0c1.8145,0,3.377,0.4536,4.6875,1.3608s2.3184,2.1455,3.0244,3.7148
							c0.7051,1.5703,1.0576,3.334,1.0576,5.292c0,2.2466-0.417,4.1904-1.252,5.832c-0.8359,1.6416-2.0088,2.9019-3.5215,3.7803
							c-1.5117,0.8789-3.29,1.3174-5.335,1.3174c-0.8643,0-1.7783-0.0864-2.7432-0.2593
							C706.9683,78.1206,705.9819,77.8472,704.9741,77.4722z"/>
					</g>
					<g>
						<path class="st3" d="M567.231,86.2422l0.1294-1.21l6.9556,0.4321c0.7773-0.9795,1.4321-1.9082,1.9653-2.7861
							c0.5327-0.8789,1.0435-1.8438,1.5337-2.8945c0.4893-1.0518,1.0078-2.3115,1.5552-3.7803l6.7822-17.9712h1.2964l-7.042,18.3604
							c-1.4111,3.7148-2.8296,6.4077-4.2549,8.0781c-1.4258,1.6699-3.1323,2.5059-5.1191,2.5059
							c-0.5479,0-1.1382-0.0649-1.7715-0.1943C568.6279,86.6523,567.9512,86.4722,567.231,86.2422z M571.335,58.853
							c-0.5186-0.0864-1.001-0.2085-1.4473-0.3672c-0.4468-0.1577-0.8716-0.3379-1.2744-0.54v-0.3452h7.1279v0.3452L571.335,58.853z
							 M577.8149,77.7314l-7.3442-19.6992h1.5122l7.0415,19.3105L577.8149,77.7314z M586.8438,58.853
							c-0.8354-0.0571-1.6567-0.165-2.4624-0.3237c-0.8066-0.1582-1.6274-0.3525-2.4624-0.5835v-0.3452h7.1279v0.3452
							L586.8438,58.853z"/>
					</g>
					<g>
						<path class="st3" d="M326.7944,78.5522c-0.8643,0-1.7646-0.0645-2.7002-0.1943c-0.936-0.1294-1.9082-0.3379-2.916-0.6265
							l0.4321-1.2959c1.3242,0.2881,2.6279,0.5044,3.9097,0.6479c1.2812,0.1445,2.5273,0.2163,3.7368,0.2163
							c0.4893,0,0.9722-0.0142,1.4473-0.0435c0.4751-0.0283,0.9429-0.0571,1.4038-0.0864l-1.4253,0.3022
							c0.7773-0.2007,1.4609-0.6763,2.0518-1.4253c0.5898-0.7485,0.8857-1.5264,0.8857-2.333c0-0.835-0.2886-1.5479-0.8643-2.1382
							c-0.5762-0.5898-1.3174-1.123-2.2246-1.5986c-0.9072-0.4751-1.8652-0.9502-2.873-1.4253
							c-1.0083-0.4756-1.9653-0.9863-2.8726-1.5337c-0.9072-0.5469-1.6489-1.1948-2.2246-1.9438
							c-0.5767-0.749-0.8643-1.6558-0.8643-2.7217c0-1.5835,0.6978-2.8223,2.0952-3.7153c1.3965-0.8926,3.1895-1.3394,5.3784-1.3394
							c0.7485,0,1.5337,0.0581,2.3545,0.1729c0.8208,0.1157,1.6631,0.2881,2.5269,0.5186l-0.3022,1.4258
							c-1.2095-0.2876-2.3262-0.4971-3.3481-0.6265c-1.0225-0.1299-2.0518-0.1943-3.0884-0.1943
							c-0.4614,0-0.9365,0.0146-1.4258,0.043c-0.4902,0.0288-0.9795,0.0723-1.4688,0.1294l0.7344-0.2158
							c-0.6914,0.2881-1.2314,0.7495-1.6201,1.3823c-0.3887,0.6338-0.583,1.3252-0.583,2.0737c0,0.8931,0.2876,1.6631,0.8638,2.311
							c0.5757,0.6479,1.3101,1.2173,2.2031,1.7065c0.8926,0.4902,1.8506,0.9653,2.873,1.4258
							c1.022,0.4609,1.9795,0.9575,2.8726,1.4902c0.8926,0.5332,1.627,1.1523,2.2036,1.8574
							c0.5757,0.7061,0.8638,1.5771,0.8638,2.6138c0,1.584-0.7559,2.8369-2.2681,3.7583
							C331.0498,78.0923,329.1274,78.5522,326.7944,78.5522z M321.1782,77.7314l0.1729-6.0049h0.3457l1.0366,6.0049H321.1782z
							 M333.6201,63.562l-1.0801-5.5728h1.5117l-0.0859,5.5728H333.6201z"/>
					</g>
					<g>
						<path class="st3" d="M833.7891,78.6387c-1.584-0.0288-2.8799-0.5464-3.8877-1.5552
							c-1.0088-1.0078-1.5117-2.2896-1.5117-3.8447c0-0.835,0.1865-1.5552,0.5615-2.1602c0.374-0.6045,1.043-1.1514,2.0088-1.6416
							c0.9639-0.4893,2.3037-0.9644,4.0176-1.4253c1.7129-0.4604,3.9092-0.9507,6.5879-1.4688v1.166l-11.707,2.6787l0.4746-0.3457
							c-0.1445,0.4609-0.2588,0.9502-0.3457,1.4688c-0.0859,0.5186-0.1289,0.9937-0.1289,1.4258
							c0,1.2959,0.3516,2.311,1.0576,3.0454s1.7207,1.1016,3.0459,1.1016c1.0078,0,2.124-0.2373,3.3477-0.7129
							c1.2246-0.4751,2.499-1.188,3.8232-2.1382v0.7773c-1.1514,0.9507-2.3037,1.7139-3.4561,2.29
							C836.5254,77.876,835.2285,78.3218,833.7891,78.6387z M843.9414,78.4229c-0.7207,0-1.3975-0.3022-2.0303-0.9072
							c-0.6338-0.605-1.0664-1.4829-1.2959-2.6353l0.3447-13.8237c-1.8135-1.6704-4.0322-2.5059-6.6523-2.5059
							c-0.6045,0-1.21,0.0508-1.8145,0.1514c-0.6045,0.1011-1.2246,0.2524-1.8574,0.4536l0.4316-0.3892l-0.6475,5.7026
							c-0.4326-0.23-0.7715-0.5898-1.0156-1.0801c-0.2451-0.4893-0.3672-1.0078-0.3672-1.5552c0-0.8638,0.2656-1.6343,0.7988-2.311
							c0.5332-0.6763,1.2676-1.2163,2.2041-1.6201c0.9355-0.4028,1.9795-0.605,3.1318-0.605c1.3242,0,2.584,0.2593,3.7793,0.7778
							s2.2393,1.2817,3.1328,2.2896V76.522l4.708-0.0864c-0.2305,0.4609-0.5039,0.8359-0.8203,1.123
							c-0.3174,0.2886-0.6484,0.5044-0.9941,0.6484C844.6328,78.3506,844.2871,78.4229,843.9414,78.4229z"/>
					</g>
					<g>
						<path class="st3" d="M959.3926,78.25v-0.3457c0.4609-0.1729,0.9648-0.3306,1.5127-0.4751
							c0.5469-0.1436,1.2236-0.2593,2.0303-0.3457l0.4316-27.043l-2.1162-2.2031c0.4893-0.3169,1-0.5835,1.5332-0.7993
							c0.5322-0.2163,1.0869-0.3813,1.6631-0.4971V77.127l3.8447,0.8208V78.25H959.3926z M975.8086,78.5957l-9.374-11.3184
							l8.165-9.2451h1.2529v0.3027l-8.165,9.3311v-0.8643l9.7197,11.146c-0.2305,0.1152-0.4746,0.2305-0.7344,0.3452
							C976.4141,78.4077,976.126,78.5093,975.8086,78.5957z M975.1182,58.8101c-0.7783-0.0576-1.498-0.1655-2.1602-0.3242
							c-0.6631-0.1577-1.3115-0.3379-1.9443-0.54v-0.3452h6.8691v0.3452L975.1182,58.8101z"/>
					</g>
					<g>
						<path class="st3" d="M1093.9531,78.5093c-1.6416,0-3.0889-0.4321-4.3408-1.2959c-1.2529-0.8643-2.2324-2.0664-2.9385-3.6074
							c-0.7061-1.5405-1.0576-3.3188-1.0576-5.335c0-2.0737,0.374-3.938,1.123-5.5947c0.748-1.6558,1.7852-2.9658,3.1104-3.9312
							c1.3242-0.9644,2.8506-1.4473,4.5791-1.4473c1.3535,0,2.5488,0.3174,3.5859,0.9507c1.0361,0.6338,1.8574,1.4976,2.4619,2.5918
							c0.6045,1.0947,0.8926,2.3477,0.8643,3.7583l-0.1299,2.7651c-1.4111,0.2017-2.8291,0.3672-4.2549,0.4966
							c-1.4258,0.1299-2.9883,0.2236-4.6875,0.2808c-1.6992,0.0581-3.6865,0.0864-5.9619,0.0864v-1.2095l13.6084-0.2163
							l0.0859-2.0732c0-1.7856-0.54-3.2544-1.6191-4.4067c-1.0801-1.1514-2.4707-1.7275-4.1689-1.7275
							c-0.8066,0-1.6348,0.1367-2.4844,0.4102c-0.8496,0.2739-1.6484,0.6553-2.3975,1.145
							c-0.749,1.1519-1.3252,2.4121-1.7285,3.7798c-0.4033,1.3682-0.6045,2.7432-0.6045,4.1255
							c0,2.8804,0.6982,5.1128,2.0957,6.6963c1.3965,1.584,3.2324,2.376,5.5078,2.376c2.0156,0,4.1758-0.6191,6.4795-1.8579
							l0.1299,0.3027c-1.1523,0.979-2.3477,1.7139-3.5859,2.2031S1095.1631,78.5093,1093.9531,78.5093z"/>
					</g>
					<g>
						<path class="st3" d="M1216.2305,78.25v-0.3457c0.9219-0.4321,1.915-0.7344,2.9814-0.9072l3.6289,0.9072V78.25H1216.2305z
							 M1220.335,58.853c-0.6338-0.0864-1.2168-0.2085-1.75-0.3672c-0.5332-0.1577-1.0146-0.3379-1.4473-0.54v-0.3452h7.1279v0.3452
							L1220.335,58.853z M1218.1318,77.8179v-0.2158l8.208-11.0591h0.7344l7.9053,10.8862v0.3887h-1.4258l-7.2139-10.0654h0.5615
							l-7.4736,10.0654H1218.1318z M1226.2969,67.7524l-6.8262-9.3311v-0.3892h1.4688l6.0918,8.5107h-0.5625l6.2646-8.5107h1.3818
							v0.2163l-7.041,9.5039H1226.2969z M1233.4678,58.8101c-0.6914-0.0576-1.3467-0.1655-1.9658-0.3242
							c-0.6191-0.1577-1.2168-0.3379-1.793-0.54v-0.3452h6.6094v0.3452L1233.4678,58.8101z M1230.0117,78.25v-0.3457
							c0.7197-0.2876,1.4395-0.5107,2.1602-0.6694c0.7197-0.1582,1.4395-0.252,2.1602-0.2808l2.8506,0.9502V78.25H1230.0117z"/>
					</g>
					<g>
						<path class="st3" d="M190.3613,324.2734v-0.3457c0.4604-0.1445,0.957-0.2949,1.4902-0.4531
							c0.5327-0.1592,1.2026-0.2812,2.0093-0.3672l0.3887-24.7969l-2.0737-2.2031c0.5186-0.2876,1.022-0.5469,1.5122-0.7778
							c0.4893-0.23,0.9937-0.4028,1.5117-0.5186l0.1729,3.3267v25.0127l5.0112,0.8213v0.3018H190.3613z M199.6494,316.1523
							c-0.8066,0-1.6631-0.0801-2.5703-0.2383c-0.9072-0.1572-1.8359-0.3955-2.7866-0.7129l0.6479-0.9932
							c0.8643,0.2588,1.6992,0.4531,2.5059,0.583c0.8057,0.1299,1.5693,0.1943,2.2896,0.1943c2.7065,0,4.8384-0.8564,6.3936-2.5703
							c1.5552-1.7129,2.333-4.0967,2.333-7.1494c0-1.6123-0.2378-3.0957-0.7129-4.4497c-0.4751-1.3535-1.1738-2.606-2.0952-3.7583
							l1.728,1.771c-2.0737-1.728-4.1333-2.5918-6.1777-2.5918c-2.0161,0-4.0464,0.8638-6.0913,2.5918v-0.8638
							c0.8926-0.7485,1.7998-1.375,2.7217-1.8794c0.9214-0.5034,1.8716-0.9136,2.8511-1.231c0.0576,0,0.1147,0,0.1729,0
							c0.0576,0,0.1006,0,0.1299,0c1.8145,0,3.376,0.4536,4.687,1.3608c1.3101,0.9072,2.3179,2.1455,3.0239,3.7148
							c0.7056,1.5698,1.0586,3.3345,1.0586,5.2925c0,2.2461-0.418,4.1904-1.2529,5.832c-0.8354,1.6416-2.0088,2.9014-3.521,3.7793
							C203.4727,315.7129,201.6938,316.1523,199.6494,316.1523z"/>
					</g>
					<g>
						<path class="st3" d="M315.98,315.8496v-0.3457c0.4604-0.1729,0.9644-0.3311,1.5117-0.4746
							c0.5469-0.1445,1.2241-0.2598,2.0308-0.3457l0.3887-16.373l-2.0737-2.2031c0.9214-0.605,1.9292-1.0371,3.0239-1.2964
							l0.1729,3.3267v16.5889l3.8447,0.8203v0.3027H315.98z M320.8184,298.8721v-0.8208c0.9214-0.8062,1.8716-1.4614,2.8511-1.9658
							c0.979-0.5034,2.0015-0.8994,3.0674-1.188c0.1147,0,0.2227,0,0.3237,0c0.1006,0,0.1943,0,0.2808,0
							c1.2671,0,2.4478,0.2451,3.5425,0.7344c1.0942,0.4902,2.1309,1.2822,3.1104,2.376l-1.123,0.6484
							c-1.728-1.6416-3.6147-2.4624-5.6592-2.4624C325.0801,296.1938,322.9492,297.0864,320.8184,298.8721z M321.5527,290.4048
							l-0.3022-0.3457c0.6328-0.835,1.1445-1.4688,1.5332-1.9009c0.3892-0.4316,0.7056-0.7266,0.9507-0.8853
							c0.2441-0.1582,0.4678-0.2305,0.6694-0.2163c0.2012,0.0151,0.4175,0.0508,0.6479,0.1084l4.6655,1.2524l2.4624-2.2461
							l0.3027,0.3022c-0.8066,1.0947-1.4331,1.8652-1.8794,2.311c-0.4468,0.4468-0.7993,0.6846-1.0581,0.7129
							c-0.2593,0.0293-0.5479,0-0.8643-0.0864l-4.6655-1.2529L321.5527,290.4048z M328.9399,315.8496v-0.3457
							c0.4604-0.1729,0.9644-0.3311,1.5117-0.4746c0.5469-0.1445,1.2241-0.2598,2.0308-0.3457l0.3887-16.0273l1.123-0.6484v16.7188
							l3.8447,0.8203v0.3027H328.9399z"/>
					</g>
					<g>
						<path class="st3" d="M448.2798,315.8496v-0.3457c0.5186-0.2012,1.0723-0.374,1.6631-0.5186
							c0.5898-0.1436,1.2163-0.2441,1.8794-0.3018l0.3887-16.373l-2.0737-2.2031c0.4893-0.3169,1.0005-0.5835,1.5337-0.7993
							c0.5327-0.2163,1.0869-0.3813,1.6631-0.4971v19.9155l3.8447,0.8203v0.3027H448.2798z M452.9023,286.8623
							c0.2588,0.231,0.4819,0.5186,0.6694,0.8643c0.187,0.3452,0.2949,0.6768,0.3237,0.9937
							c-0.2017,0.2588-0.4683,0.4751-0.7988,0.6479c-0.3315,0.1729-0.6558,0.2881-0.9722,0.3452
							c-0.2593-0.23-0.4824-0.5034-0.6694-0.8208c-0.188-0.3164-0.3242-0.6328-0.4106-0.9502
							c0.2305-0.2876,0.5112-0.5249,0.8423-0.7129C452.2178,287.0425,452.5566,286.9204,452.9023,286.8623z"/>
					</g>
					<g>
						<path class="st3" d="M128.5352,415.2539c-0.5186-0.0869-1.001-0.209-1.4473-0.3672c-0.4468-0.1582-0.8716-0.3389-1.2744-0.54
							v-0.3457h7.1279v0.3457L128.5352,415.2539z M135.3174,434.9092l-7.603-20.4766h1.5117l7.1284,19.6562h-0.4321l7.4302-19.6562
							h1.2964l-7.1714,18.6191c-0.1445,0.375-0.2739,0.6777-0.3887,0.9072c-0.1157,0.2314-0.2451,0.4043-0.3892,0.5186
							c-0.144,0.1152-0.3237,0.2012-0.54,0.2588C135.9438,434.7939,135.6631,434.8516,135.3174,434.9092z M144.0439,415.2539
							c-1.6133-0.1152-3.2549-0.417-4.9248-0.9072v-0.3457h7.1279v0.3457L144.0439,415.2539z"/>
					</g>
					<g>
						<path class="st3" d="M269.043,434.9961c-1.728,0-3.2476-0.4316-4.5576-1.2959c-1.311-0.8643-2.333-2.0742-3.0674-3.6289
							c-0.7344-1.5557-1.1016-3.3701-1.1016-5.4434c0-3.4268,0.9287-6.1055,2.7866-8.0352
							c1.8574-1.9287,4.3413-2.8945,7.4517-2.8945c0.7778,0,1.584,0.0654,2.4194,0.1943c0.835,0.1299,1.6987,0.3242,2.5918,0.583
							l-0.3887,1.167c-1.8726-0.4893-3.5142-0.7344-4.9248-0.7344c-1.2388,0-2.4189,0.1729-3.5425,0.5186
							c-1.123,0.3457-2.2319,0.8633-3.3262,1.5547l0.5615-0.5615c-0.7202,1.0654-1.2817,2.3047-1.6846,3.7148
							c-0.4038,1.4121-0.605,2.8945-0.605,4.4502c0,1.9004,0.3091,3.5283,0.9287,4.8818c0.6191,1.3535,1.4614,2.3828,2.5273,3.0889
							c1.0649,0.7061,2.2461,1.0576,3.5425,1.0576c0.9785,0,1.9937-0.208,3.0454-0.626c1.0508-0.417,2.1094-1.0586,3.1753-1.9229
							v0.8213c-0.8066,0.6338-1.6782,1.2246-2.6138,1.7715c-0.936,0.5469-1.9512,0.9932-3.0454,1.3389c-0.0293,0-0.0508,0-0.0649,0
							C269.1362,434.9961,269.1001,434.9961,269.043,434.9961z M270.4683,443.0742v-0.3457c0.605-0.2305,1.2241-0.4102,1.8579-0.54
							c0.6333-0.1289,1.3101-0.2227,2.0303-0.2803l0.4321-27.4326l1.0801-0.8633v28.3389l2.9375,0.8213v0.3018H270.4683z"/>
					</g>
					<g>
						<path class="st3" d="M385.9351,415.2539c-0.5186-0.0869-1.001-0.209-1.4473-0.3672c-0.4468-0.1582-0.8716-0.3389-1.2744-0.54
							v-0.3457h7.1279v0.3457L385.9351,415.2539z M392.7607,434.9092l-7.6465-20.4766h1.5117l7.1714,19.6562h-0.4321l5.5298-14.6445
							l0.6479,1.6416l-4.6226,11.9658c-0.144,0.375-0.2739,0.6777-0.3887,0.9072c-0.1152,0.2314-0.2451,0.4043-0.3887,0.5186
							c-0.1445,0.1152-0.3242,0.2012-0.54,0.2588S393.1064,434.8516,392.7607,434.9092z M397.167,415.2539
							c-0.5186-0.0869-1.001-0.209-1.4473-0.3672c-0.4468-0.1582-0.8716-0.3389-1.2744-0.54v-0.3457h7.1279v0.3457L397.167,415.2539
							z M403.9492,434.9092l-7.603-20.4766h1.5122l7.1279,19.6562h-0.4321l7.4736-19.6562h1.2959l-7.2144,18.6191
							c-0.1445,0.375-0.2739,0.6777-0.3887,0.9072c-0.1157,0.2314-0.2451,0.4043-0.3887,0.5186
							c-0.1445,0.1152-0.3242,0.2012-0.54,0.2588C404.5757,434.7939,404.2949,434.8516,403.9492,434.9092z M412.7192,415.2539
							c-0.8359-0.0576-1.6567-0.166-2.4624-0.3242c-0.8066-0.1582-1.6274-0.3525-2.4624-0.583v-0.3457h7.1279v0.3457
							L412.7192,415.2539z"/>
					</g>
					<g>
						<path class="st3" d="M84.332,195.6504v-0.3457c0.9214-0.4316,1.915-0.7344,2.9805-0.9072l3.6289,0.9072v0.3457H84.332z
							 M88.436,176.2539c-0.6338-0.0869-1.2173-0.209-1.7495-0.3672c-0.5337-0.1582-1.0156-0.3389-1.4473-0.54v-0.3457h7.1279
							v0.3457L88.436,176.2539z M86.2329,195.2188v-0.2168l8.208-11.0586h0.7344l7.9053,10.8867v0.3887h-1.4253l-7.2144-10.0664
							h0.5615l-7.4736,10.0664H86.2329z M94.3975,185.1523l-6.8257-9.3311v-0.3887h1.4688l6.0913,8.5107h-0.5615l6.2642-8.5107
							h1.3823v0.2158l-7.0415,9.5039H94.3975z M101.5688,176.21c-0.6914-0.0566-1.3467-0.165-1.9658-0.3232
							c-0.6196-0.1582-1.2168-0.3389-1.793-0.54v-0.3457h6.6099v0.3457L101.5688,176.21z M98.1128,195.6504v-0.3457
							c0.7192-0.2871,1.4395-0.5107,2.1597-0.6699c0.7197-0.1572,1.4399-0.251,2.1602-0.2803l2.8511,0.9502v0.3457H98.1128z"/>
					</g>
					<g>
						<path class="st3" d="M1011.9746,205.6465l-0.2168-0.2593l3.8447-5.7456l0.3896-20.1309l-2.0742-2.2031
							c0.4893-0.3169,1.001-0.5835,1.5342-0.7993c0.5322-0.2163,1.0859-0.3813,1.6631-0.4971v21.0815
							c0,1.728-0.4473,3.2686-1.3398,4.6226C1014.8828,203.0688,1013.6162,204.3789,1011.9746,205.6465z M1016.6396,168.0625
							c0.2598,0.231,0.4824,0.5186,0.6699,0.8643c0.1865,0.3452,0.2949,0.6768,0.3242,0.9937
							c-0.2021,0.2588-0.4688,0.4751-0.7998,0.6479s-0.6553,0.2881-0.9717,0.3452c-0.2598-0.23-0.4824-0.5034-0.6699-0.8208
							c-0.1875-0.3164-0.3242-0.6328-0.4102-0.9502c0.2305-0.2876,0.5107-0.5249,0.8428-0.7129
							C1015.9551,168.2427,1016.2939,168.1206,1016.6396,168.0625z"/>
					</g>
					<g>
						<path class="st3" d="M1144.8789,197.0498v-0.3457c0.46-0.1729,0.9648-0.3306,1.5117-0.4751
							c0.5469-0.1436,1.2236-0.2593,2.0303-0.3457l0.3887-16.3726l-2.0732-2.2031c0.9219-0.605,1.9297-1.0371,3.0244-1.2964
							l0.1729,3.9312v15.9844l4.9248,0.8208v0.3022H1144.8789z M1157.8389,177.3506c-2.8799,0.1729-5.5586,1.2095-8.0352,3.1104
							V179.77c0.9209-0.835,1.8789-1.5552,2.873-2.1602c0.9932-0.605,2.0225-1.1084,3.0889-1.5122
							c0.4316,0.0864,0.8203,0.2021,1.166,0.3457c0.3457,0.1445,0.6768,0.3315,0.9932,0.5615L1157.8389,177.3506z"/>
					</g>
					<g>
						<path class="st3" d="M1270.541,197.0498v-0.1294l14.1699-19.397h-11.7939l-0.9502,4.8813h-0.3027l-0.1729-6.0044H1287v0.1294
							l-14.126,19.397l12.96,0.043l0.9502-5.2271h0.2588l0.2598,6.3071H1270.541z"/>
					</g>
					<g>
						<path class="st3" d="M1405.001,194.2417l0.3457-14.731l-2.0742-2.2031c1.0078-0.605,2.0742-1.0371,3.1973-1.2964v17.626
							L1405.001,194.2417z M1412.2588,197.3521c-0.1162,0-0.2236,0-0.3242,0c-0.1016,0-0.1943,0-0.2812,0
							c-1.2383,0-2.4043-0.2524-3.499-0.7559s-2.1455-1.2886-3.1533-2.3545l1.4688-0.6045
							c1.7275,1.5552,3.5566,2.3325,5.4863,2.3325c2.0732,0,4.1475-0.8638,6.2207-2.5918v0.8208
							c-0.8926,0.8066-1.8291,1.4619-2.8076,1.9653C1414.3896,196.6685,1413.3525,197.064,1412.2588,197.3521z M1419.4297,195.3218
							l4.709-0.0864c-0.2314,0.4321-0.5049,0.7993-0.8213,1.1016c-0.3174,0.3027-0.6475,0.5259-0.9932,0.6699
							c-0.3457,0.1436-0.6914,0.2158-1.0371,0.2158c-0.4902,0-0.958-0.1299-1.4043-0.3887c-0.4463-0.2593-0.835-0.6406-1.166-1.145
							c-0.3311-0.5034-0.583-1.1157-0.7559-1.8359l0.3457-14.3423l-2.0742-2.2031c1.0078-0.605,2.0742-1.0371,3.1973-1.2964
							V195.3218z"/>
					</g>
					<g>
						<path class="st3" d="M91.4551,533.9238v-0.3457c0.5757-0.2305,1.1592-0.4102,1.7495-0.54
							c0.5898-0.1299,1.2456-0.208,1.9658-0.2373c0-1.9873,0.1221-3.6787,0.3672-5.0762c0.2441-1.3965,0.6406-2.541,1.188-3.4346
							c0.5469-0.8926,1.2529-1.5479,2.1167-1.9658c0.8643-0.417,1.9009-0.626,3.1104-0.626c0.2593,0,0.54,0.0078,0.8423,0.0215
							c0.3027,0.0146,0.5977,0.0508,0.8857,0.1084v1.5547c-0.3745-0.0576-0.7559-0.0928-1.1445-0.1074
							c-0.3892-0.0146-0.771-0.0225-1.145-0.0225c-0.5767,0-1.1597,0.0225-1.7495,0.0654c-0.5908,0.043-1.1738,0.123-1.7495,0.2373
							c-0.4614,0.6045-0.8145,1.7217-1.0586,3.3477c-0.2451,1.6279-0.3672,3.5938-0.3672,5.8975h6.437l-0.1299,1.123H91.4551z
							 M96.4233,533.4482v18.8789l4.3198,0.8203v0.3027h-8.9424v-0.3457c0.4028-0.1729,0.8491-0.3311,1.3394-0.4746
							c0.4893-0.1445,1.0796-0.2598,1.771-0.3457l0.3022-18.8359H96.4233z"/>
					</g>
					<g>
						<path class="st4" d="M352.959,530.0791v2.7217h7.9487l-0.1294,1.123h-7.8193v18.0146l7.8623-0.0439
							c-0.4316,0.4043-0.9219,0.75-1.4688,1.0371c-0.5474,0.2881-1.1089,0.4971-1.6846,0.627
							c-0.5767,0.1289-1.1523,0.1943-1.728,0.1943c-1.0371,0-1.9731-0.2168-2.8081-0.6484
							c-0.8354-0.4316-1.3975-1.0654-1.6851-1.9004l0.4756-17.2803h-3.0674v-0.4316c0.6621-0.6055,1.3174-1.1885,1.9658-1.75
							C351.4688,531.1807,352.1816,530.626,352.959,530.0791z"/>
					</g>
					<g>
						<path class="st3" d="M216.0801,553.4502v-0.3457c0.4604-0.1729,0.9644-0.3311,1.5117-0.4746
							c0.5469-0.1445,1.2241-0.2598,2.0308-0.3457l0.3887-16.373l-2.0737-2.2031c0.9214-0.6055,1.9292-1.0371,3.0239-1.2959
							l0.1729,3.3262v16.5889l3.8447,0.8203v0.3027H216.0801z M232.9712,536.2568c-1.728-1.6416-3.6147-2.4629-5.6592-2.4629
							c-2.1318,0-4.2627,0.8936-6.3936,2.6787v-0.8213c0.9214-0.8057,1.8716-1.4609,2.8511-1.9648
							c0.979-0.5039,2.0015-0.9004,3.0674-1.1885c0.1147,0,0.2227,0,0.3237,0c0.1006,0,0.1943,0,0.2808,0
							c1.2671,0,2.4478,0.2451,3.5425,0.7344c1.0942,0.4902,2.1309,1.2822,3.1104,2.376L232.9712,536.2568z M229.04,553.4502
							v-0.3457c0.4604-0.1729,0.9644-0.3311,1.5117-0.4746c0.5469-0.1445,1.2241-0.2598,2.0308-0.3457l0.3887-16.0273l1.123-0.6484
							v0.2598v16.459l3.8447,0.8203v0.3027H229.04z M245.9312,536.2568c-1.728-1.6416-3.6147-2.4629-5.6592-2.4629
							c-2.1318,0-4.2627,0.8936-6.3936,2.6787v-0.8213c0.9214-0.8057,1.8716-1.4609,2.8511-1.9648
							c0.979-0.5039,2.0015-0.9004,3.0674-1.1885c0.1147,0,0.2227,0,0.3237,0c0.1006,0,0.1948,0,0.2808,0
							c1.2671,0,2.4478,0.2451,3.5425,0.7344c1.0942,0.4902,2.1313,1.2822,3.1104,2.376L245.9312,536.2568z M242,553.4502v-0.3457
							c0.4604-0.1729,0.9644-0.3311,1.5122-0.4746c0.5464-0.1445,1.2236-0.2598,2.0303-0.3457l0.3887-16.0273l1.123-0.6484v16.7188
							l3.8452,0.8203v0.3027H242z"/>
					</g>
					<g>
						<path class="st4" d="M482.9409,553.7529c-1.6416,0-3.0967-0.4395-4.3633-1.3184c-1.2676-0.8779-2.2612-2.0869-2.981-3.6279
							c-0.7202-1.541-1.0801-3.3057-1.0801-5.292c0-2.1318,0.3813-4.0244,1.145-5.6816c0.7627-1.6553,1.8145-2.959,3.1533-3.9092
							c1.3394-0.9502,2.8579-1.4258,4.5576-1.4258c1.6699,0,3.1387,0.4541,4.4067,1.3613c1.2666,0.9072,2.2676,2.1377,3.0024,3.6934
							c0.7344,1.5547,1.1016,3.3408,1.1016,5.3564c0,2.1025-0.3892,3.9678-1.1665,5.5947c-0.7778,1.627-1.8359,2.9092-3.1753,3.8447
							C486.2021,553.2852,484.6685,553.7529,482.9409,553.7529z M483.1133,552.543c1.4399,0,2.7144-0.4033,3.8232-1.21
							c1.1084-0.8057,1.98-1.9365,2.6138-3.3906c0.6333-1.4541,0.9502-3.1172,0.9502-4.9902c0-1.8428-0.3096-3.4482-0.9287-4.8164
							c-0.6196-1.3672-1.4834-2.4336-2.5918-3.1963c-1.1089-0.7637-2.3975-1.1455-3.8667-1.1455
							c-0.8638,0-1.7427,0.1514-2.6348,0.4541c-0.8931,0.3018-1.7573,0.7559-2.5923,1.3604l0.5615-0.6045
							c-0.8354,1.2959-1.4688,2.6348-1.9009,4.0176c-0.4316,1.3818-0.6479,2.7939-0.6479,4.2334
							c0,1.8145,0.3169,3.4199,0.9507,4.8174c0.6328,1.3965,1.4902,2.4912,2.5703,3.2832S481.731,552.543,483.1133,552.543z"/>
					</g>
					<g>
						<path class="st4" d="M608.5015,550.6426l0.3452-14.7314l-2.0732-2.2031c1.0078-0.6055,2.0732-1.0371,3.1968-1.2959v17.625
							L608.5015,550.6426z M615.7588,553.7529c-0.1152,0-0.2231,0-0.3237,0c-0.1016,0-0.1943,0-0.2808,0
							c-1.2388,0-2.4053-0.2529-3.4995-0.7559c-1.0947-0.5039-2.1455-1.2891-3.1533-2.3545l1.4688-0.6055
							c1.728,1.5557,3.5566,2.333,5.4863,2.333c2.0737,0,4.147-0.8643,6.2207-2.5918v0.8203
							c-0.8931,0.8066-1.8291,1.4629-2.8081,1.9658C617.8896,553.0684,616.853,553.4648,615.7588,553.7529z M622.9302,551.7227
							l4.7085-0.0869c-0.2305,0.4316-0.5039,0.7988-0.8208,1.1016s-0.6479,0.5264-0.9932,0.6699
							c-0.3457,0.1436-0.6914,0.2158-1.0371,0.2158c-0.4897,0-0.9575-0.1299-1.4038-0.3887
							c-0.4468-0.2598-0.8359-0.6406-1.1665-1.1445c-0.3315-0.5039-0.583-1.1162-0.7559-1.8369l0.3457-14.3418l-2.0737-2.2031
							c1.0078-0.6055,2.0737-1.0371,3.1968-1.2959V551.7227z"/>
					</g>
					<g>
						<path class="st4" d="M730.8794,553.4502v-0.3457c0.46-0.1729,0.9648-0.3311,1.5117-0.4746
							c0.5469-0.1445,1.2236-0.2598,2.0303-0.3457l0.3887-16.373l-2.0732-2.2031c0.9219-0.6055,1.9297-1.0371,3.0239-1.2959
							l0.1729,3.3262v16.5889l3.8447,0.8203v0.3027H730.8794z M735.7168,536.4727v-0.8213
							c0.9219-0.8057,1.8721-1.4609,2.8516-1.9648c0.9785-0.5039,2.001-0.9004,3.0674-1.1885c0.1143,0,0.2227,0,0.3242,0
							c0.1006,0,0.1943,0,0.2803,0c1.2676,0,2.4473,0.2451,3.543,0.7344c1.0938,0.4902,2.1309,1.2822,3.1104,2.376l-1.123,0.6484
							c-1.7285-1.6416-3.6152-2.4629-5.6602-2.4629C739.9795,533.7939,737.8486,534.6875,735.7168,536.4727z M743.8389,553.4502
							v-0.3457c0.46-0.1729,0.9648-0.3311,1.5117-0.4746c0.5469-0.1445,1.2236-0.2598,2.0303-0.3457l0.3896-16.0273l1.123-0.6484
							v16.7188l3.8447,0.8203v0.3027H743.8389z"/>
					</g>
					<g>
						<path class="st4" d="M872.9424,553.7959c-1.7275,0-3.2471-0.4316-4.5576-1.2959s-2.332-2.0742-3.0664-3.6289
							c-0.7344-1.5557-1.1016-3.3701-1.1016-5.4434c0-3.4268,0.9287-6.1055,2.7861-8.0352
							c1.8574-1.9287,4.3418-2.8945,7.4521-2.8945c0.7773,0,1.583,0.0654,2.4189,0.1943c0.835,0.1299,1.6992,0.3242,2.5918,0.583
							l-0.3887,1.167c-1.8721-0.4893-3.5137-0.7344-4.9248-0.7344c-1.2383,0-2.4189,0.1729-3.542,0.5186
							c-1.124,0.3457-2.2324,0.8633-3.3271,1.5547l0.5615-0.5615c-0.7197,1.0654-1.2812,2.3047-1.6846,3.7148
							c-0.4033,1.4121-0.6045,2.8945-0.6045,4.4502c0,1.9004,0.3096,3.5283,0.9287,4.8818s1.4609,2.3828,2.5273,3.0889
							c1.0654,0.7061,2.2461,1.0576,3.542,1.0576c0.9795,0,1.9941-0.208,3.0459-0.626c1.0508-0.417,2.1094-1.0586,3.1748-1.9229
							v0.8213c-0.8066,0.6338-1.6777,1.2246-2.6133,1.7715c-0.9365,0.5469-1.9512,0.9932-3.0459,1.3389c-0.0283,0-0.0498,0-0.0645,0
							S873,553.7959,872.9424,553.7959z M881.7559,553.623c-0.4609,0-0.9219-0.1299-1.3828-0.3887
							c-0.4609-0.2598-0.8574-0.6406-1.1875-1.1445c-0.332-0.5039-0.5693-1.1162-0.7129-1.8369l0.3457-25.0127l-1.9014-2.2461
							c0.4609-0.2871,0.9219-0.5322,1.3828-0.7344c0.46-0.2012,1.0078-0.374,1.6416-0.5186v29.9814l4.6221-0.0869
							c-0.2305,0.4316-0.5039,0.7988-0.8203,1.1016c-0.3174,0.3027-0.6416,0.5264-0.9727,0.6699S882.1016,553.623,881.7559,553.623z
							 M879.293,521.0068l-0.043-0.043h0.043V521.0068z"/>
					</g>
				</g>
			</g>
		</g>
	</g>
</g>
</svg>
