<?xml version="1.0" encoding="utf-8"?>
<!-- Generator: Adobe Illustrator 24.0.2, SVG Export Plug-In . SVG Version: 6.00 Build 0)  -->
<svg version="1.1" id="Layer_1" xmlns="http://www.w3.org/2000/svg" xmlns:xlink="http://www.w3.org/1999/xlink" x="0px" y="0px"
	 viewBox="0 0 1470 650" style="enable-background:new 0 0 1470 650;" xml:space="preserve">
<style type="text/css">
	.st0{fill:#01E0A7;}
</style>
<path class="st0" d="M454.8,87.3c-2.7,0-4.8-0.6-6.3-1.7s-2.4-2.8-2.3-4.8c0.5-1.1,1.1-2.1,2-2.9c0.9-0.9,1.9-1.4,3-2h0.7
	c-1.6,1.1-2.8,2.2-3.3,3c-0.6,0.9-1,1.6-1,2.4c0,1.4,0.7,2.6,2,3.4c1.3,0.9,3.1,1.2,5.3,1.2c2.5,0,4.6-0.6,6.1-1.6s2.4-2.5,2.4-4.1
	c0-0.6-0.1-1.2-0.4-1.9c-0.3-0.7-0.7-1.3-1.3-1.9H451c-0.5-0.6-0.9-1-1.1-1.6s-0.4-1.1-0.4-1.7s0.1-1.1,0.4-1.7s0.7-1.1,1.1-1.6
	l-0.1,5.2h9.5c0.9,0,1.6,0.2,2.4,0.7c0.7,0.5,1.2,1,1.6,1.7c0.4,0.8,0.6,1.6,0.6,2.6c0,1.4-0.5,2.8-1.3,3.8c-0.9,1-2,1.9-3.6,2.6
	S456.8,87.3,454.8,87.3z M455.1,71.4c-2.4,0-4.2-0.6-5.6-1.8c-1.4-1.2-2.1-2.8-2.1-4.8c0-1.4,0.4-2.8,1-3.9c0.7-1.1,1.7-2,2.9-2.7
	s2.8-1,4.4-1c2.4,0,4.3,0.6,5.7,1.8c1.4,1.2,2.2,2.8,2.2,4.8c0,1.5-0.4,2.8-1.1,3.9c-0.8,1.1-1.8,2-3,2.6
	C458.3,71.1,456.8,71.4,455.1,71.4z M455.1,70.1c2.3,0,4-0.6,5.3-1.6s2-2.6,2-4.4c0-1.8-0.7-3.1-1.9-4.2c-1.2-1-2.9-1.5-4.9-1.5
	c-0.9,0-1.6,0.1-2.6,0.2c-0.9,0.2-1.7,0.4-2.6,0.7c-0.7,1-1.1,2.1-1.4,2.9c-0.3,0.9-0.5,1.7-0.5,2.4c0,1.6,0.6,2.9,1.8,3.9
	C451.6,69.7,453.2,70.1,455.1,70.1z M461.2,59.6c-0.1-0.4-0.2-0.9-0.3-1.2c-0.1-0.4-0.1-0.8-0.1-1.1c0-1,0.3-1.8,1-2.4
	c0.6-0.5,1.5-0.8,2.7-0.8c0.3,0,0.7,0,1,0.1c0.4,0,0.8,0.1,1.2,0.2l-0.2,1.2h-4.2l-0.9,4H461.2z"/>
<path class="st0" d="M194,78.4V78c0.5-0.2,0.9-0.3,1.5-0.5s1.2-0.3,2-0.4l0.5-27.3l-2.1-2.2c0.5-0.3,1-0.6,1.5-0.8s1-0.4,1.7-0.5
	v30.8L203,78v0.3L194,78.4L194,78.4z M198.9,61.3v-0.9c0.9-0.9,1.9-1.4,2.9-2c0.9-0.5,2-1,3-1.2c0.1,0,0.2,0,0.3,0s0.2,0,0.3,0
	c1.2,0,2.5,0.3,3.6,0.8s2.2,1.2,3.1,2.4L211,61c-1.7-1.6-3.6-2.5-5.7-2.5C203.2,58.6,201,59.5,198.9,61.3z M207.1,78.4V78
	c0.5-0.2,0.9-0.3,1.5-0.5s1.2-0.3,2-0.4L211,61l1.1-0.7v16.8L216,78v0.3L207.1,78.4L207.1,78.4z"/>
<path class="st0" d="M707.9,77.6l0.4-27.6l-2-2.3c0.5-0.3,1-0.6,1.5-0.8s1-0.4,1.6-0.5v31.2C709.4,77.6,707.9,77.6,707.9,77.6z
	 M707.9,77.6l1-0.9c0.9,0.3,1.7,0.5,2.6,0.6c0.9,0.1,1.6,0.2,2.3,0.2c2.8,0,4.8-0.9,6.5-2.6c1.6-1.7,2.4-4.1,2.4-7.2
	c0-1.6-0.2-3.1-0.8-4.5c-0.6-1.3-1.1-2.7-2.1-3.8l1.7,1.8c-2.1-1.7-4.2-2.7-6.2-2.7s-4.1,0.9-6.2,2.7v-0.9c0.9-0.8,1.8-1.4,2.8-1.9
	s1.9-1,2.9-1.2c0.1,0,0.1,0,0.2,0s0.1,0,0.1,0c1.8,0,3.4,0.5,4.8,1.3c1.3,1,2.4,2.2,3,3.7c0.7,1.5,1,3.3,1,5.3
	c0,2.3-0.4,4.2-1.2,5.9c-0.9,1.7-2,2.9-3.5,3.8s-3.3,1.3-5.4,1.3c-0.9,0-1.8-0.1-2.8-0.3C709.9,78.2,708.9,77.9,707.9,77.6z"/>
<path class="st0" d="M569.2,86.4l0.1-1.2l7,0.5c0.8-1,1.4-1.9,2-2.9c0.6-0.9,1-1.8,1.5-2.9s1-2.3,1.6-3.8l6.8-18h1.3l-7.1,18.5
	c-1.4,3.7-2.9,6.5-4.3,8.2c-1.4,1.7-3.1,2.6-5.1,2.6c-0.6,0-1.1-0.1-1.8-0.2C570.7,86.9,570,86.7,569.2,86.4z M573.4,58.8
	c-0.5-0.1-1-0.2-1.4-0.4s-0.9-0.4-1.2-0.6v-0.4h7.1v0.4L573.4,58.8z M579.9,77.8L572.5,58h1.5l7.1,19.5L579.9,77.8z M589,58.8
	c-0.9-0.1-1.7-0.2-2.5-0.3c-0.9-0.2-1.6-0.4-2.5-0.6v-0.4h7.1V58L589,58.8z"/>
<path class="st0" d="M327.3,78.7c-0.9,0-1.8-0.1-2.8-0.2s-1.9-0.4-2.9-0.7l0.5-1.3c1.3,0.3,2.7,0.5,3.9,0.7c1.3,0.2,2.6,0.2,3.8,0.2
	c0.5,0,1,0,1.4-0.1c0.5,0,0.9-0.1,1.4-0.1l-1.4,0.3c0.8-0.2,1.4-0.7,2.1-1.4s0.9-1.5,0.9-2.4s-0.3-1.5-0.9-2.2s-1.3-1.1-2.3-1.6
	s-1.9-1-2.9-1.4c-1-0.5-2-1-2.9-1.5c-1-0.6-1.6-1.2-2.3-2c-0.6-0.8-0.9-1.7-0.9-2.8c0-1.6,0.7-2.8,2.1-3.7s3.2-1.3,5.4-1.3
	c0.8,0,1.5,0.1,2.4,0.2c0.9,0.1,1.7,0.3,2.6,0.5l-0.3,1.4c-1.2-0.3-2.4-0.5-3.3-0.7c-1-0.1-2.1-0.2-3.1-0.2c-0.5,0-1,0-1.4,0
	c-0.5,0-1,0.1-1.4,0.1l0.8-0.2c-0.7,0.3-1.2,0.8-1.6,1.4s-0.6,1.3-0.6,2.1c0,0.9,0.3,1.7,0.9,2.4s1.3,1.2,2.2,1.7
	c0.9,0.5,1.9,0.9,2.9,1.4s2,0.9,2.9,1.5s1.6,1.1,2.2,1.9s0.9,1.6,0.9,2.7c0,1.6-0.8,2.8-2.3,3.8C331.5,78.2,329.6,78.7,327.3,78.7z
	 M321.7,77.8l0.2-6.1h0.4l1,6.1H321.7z M334.1,63.6l-1-5.6h1.5l-0.1,5.6H334.1z"/>
<path class="st0" d="M830.8,78.4V78c0.5-0.2,0.9-0.3,1.5-0.5s1.2-0.3,2.1-0.4l0.5-27.3l-2.1-2.2c0.5-0.3,1-0.6,1.5-0.8
	s1.1-0.4,1.7-0.5v30.8l3.9,0.9v0.3L830.8,78.4L830.8,78.4z M835.7,61.3v-0.9c1-0.9,1.9-1.4,2.8-2c1-0.5,2-1,3-1.2c0.1,0,0.2,0,0.3,0
	s0.2,0,0.3,0c1.2,0,2.5,0.3,3.6,0.8s2.2,1.2,3.1,2.4l-1.1,0.7c-1.7-1.6-3.6-2.5-5.7-2.5C840,58.6,837.8,59.5,835.7,61.3z
	 M843.8,78.4V78c0.5-0.2,0.9-0.3,1.5-0.5s1.2-0.3,2.1-0.4l0.4-16.2l1.1-0.7V77l3.9,0.9v0.3L843.8,78.4L843.8,78.4z"/>
<path class="st0" d="M964,78.4V78c0.5-0.2,1-0.3,1.5-0.5c0.6-0.2,1.2-0.3,2.1-0.4l0.5-27.3l-2.1-2.2c0.5-0.3,1-0.6,1.5-0.8
	s1.1-0.4,1.7-0.5v30.8l3.9,0.9v0.3L964,78.4L964,78.4z M980.5,78.7l-9.4-11.4l8.3-9.3h1.2v0.3l-8.3,9.4v-0.9l9.8,11.2
	c-0.2,0.1-0.5,0.2-0.8,0.4C981,78.5,980.8,78.6,980.5,78.7z M979.8,58.8c-0.8-0.1-1.5-0.2-2.2-0.3c-0.7-0.2-1.3-0.4-2-0.6v-0.4h6.9
	V58L979.8,58.8z"/>
<path class="st0" d="M1089.9,78.4V78c0.5-0.2,1-0.3,1.5-0.5s1.2-0.3,2.1-0.4l0.4-16.4l-2.1-2.2c1-0.6,1.9-1,3-1.3l0.2,3.3v16.7
	l3.9,0.9v0.3H1089.9L1089.9,78.4z M1094.8,61.3v-0.9c1-0.9,1.9-1.4,2.9-2c0.9-0.5,2-1,3-1.2c0.1,0,0.2,0,0.3,0s0.2,0,0.3,0
	c1.2,0,2.5,0.3,3.6,0.8s2.2,1.2,3.1,2.4l-1.1,0.7c-1.7-1.6-3.6-2.5-5.7-2.5C1099,58.6,1096.9,59.5,1094.8,61.3z M1095.5,52.8
	l-0.3-0.4c0.7-0.9,1.1-1.4,1.5-1.9s0.7-0.8,1-0.9s0.5-0.2,0.7-0.2s0.4,0.1,0.7,0.1l4.7,1.2l2.5-2.3l0.3,0.3
	c-0.9,1.1-1.4,1.9-1.9,2.4s-0.8,0.7-1,0.8s-0.6,0-0.9-0.1l-4.7-1.2L1095.5,52.8z M1102.9,78.4V78c0.5-0.2,0.9-0.3,1.5-0.5
	s1.2-0.3,2.1-0.4l0.4-16.2l1.1-0.7V77l3.9,0.9v0.3L1102.9,78.4L1102.9,78.4z"/>
<path class="st0" d="M1222.4,78.4V78c1-0.5,1.9-0.8,3-0.9l3.6,0.9v0.4H1222.4L1222.4,78.4z M1226.5,58.8c-0.7-0.1-1.2-0.2-1.7-0.4
	c-0.6-0.2-1-0.4-1.4-0.6v-0.4h7.2v0.4L1226.5,58.8z M1224.3,77.9v-0.2l8.3-11.1h0.8l8,10.9v0.4h-1.4l-7.3-10.2h0.6l-7.5,10.2
	C1225.7,77.9,1224.3,77.9,1224.3,77.9z M1232.5,67.9l-6.8-9.4v-0.4h1.5l6.1,8.6h-0.6l6.3-8.6h1.4v0.2l-7.1,9.6H1232.5z M1239.7,58.8
	c-0.7-0.1-1.3-0.2-2-0.3c-0.7-0.2-1.2-0.4-1.8-0.6v-0.4h6.7V58L1239.7,58.8z M1236.3,78.4V78c0.8-0.3,1.4-0.5,2.2-0.7
	s1.4-0.3,2.2-0.3l2.8,0.9v0.4L1236.3,78.4L1236.3,78.4z"/>
<path class="st0" d="M190.4,317.5v-0.4c0.5-0.2,1-0.4,1.5-0.5c0.6-0.1,1.2-0.3,2-0.4l0.5-27.2l-2.1-2.2c0.5-0.3,1-0.6,1.5-0.9
	s1-0.4,1.7-0.5v30.8l3.9,0.9v0.3h-9V317.5z M206.9,317.9l-9.4-11.4l8.2-9.3h1.2v0.3l-8.2,9.4V306l9.8,11.2c-0.2,0.1-0.5,0.2-0.8,0.4
	C207.6,317.6,207.2,317.8,206.9,317.9z M206.2,298c-0.8-0.1-1.5-0.2-2.2-0.3c-0.7-0.2-1.3-0.4-2-0.6v-0.4h6.9v0.4L206.2,298z"/>
<path class="st0" d="M316.4,317.5v-0.4c0.5-0.2,1-0.4,1.5-0.5s1.2-0.3,2-0.4l0.4-16.4l-2.1-2.2c1-0.6,1.9-1,3-1.3l0.2,3.3v16.7
	l3.9,0.9v0.3H316.4L316.4,317.5z M321.3,300.4v-0.9c1-0.9,1.9-1.4,2.9-2c1-0.5,2-1,3-1.2c0.1,0,0.2,0,0.3,0c0.1,0,0.2,0,0.3,0
	c1.2,0,2.5,0.3,3.6,0.8s2.2,1.3,3.1,2.4l-1.1,0.7c-1.7-1.6-3.6-2.5-5.7-2.5C325.5,297.8,323.4,298.6,321.3,300.4z M321.9,291.9
	l-0.3-0.4c0.7-0.9,1.1-1.4,1.5-1.9s0.7-0.8,1-0.9c0.3-0.2,0.5-0.2,0.7-0.2s0.4,0.1,0.7,0.1l4.7,1.2l2.5-2.3l0.3,0.3
	c-0.9,1.1-1.4,1.9-1.9,2.4s-0.9,0.7-1,0.8c-0.2,0.1-0.6,0-0.9-0.1l-4.7-1.2L321.9,291.9z M329.4,317.5v-0.4c0.5-0.2,1-0.4,1.5-0.5
	c0.6-0.1,1.2-0.3,2-0.4l0.4-16.1l1.1-0.7v16.8l3.9,0.9v0.3L329.4,317.5L329.4,317.5z"/>
<path class="st0" d="M448.9,317.5v-0.4c1-0.5,1.9-0.8,3-1l3.6,1v0.4H448.9z M453,298c-0.7-0.1-1.2-0.2-1.8-0.4
	c-0.6-0.2-1-0.4-1.4-0.6v-0.4h7.1v0.4L453,298z M450.8,317v-0.2l8.3-11.1h0.8l8,10.9v0.4h-1.4l-7.2-10.2h0.6l-7.5,10.2L450.8,317
	L450.8,317z M459,307l-6.8-9.4v-0.4h1.4l6.2,8.5h-0.6l6.3-8.5h1.4v0.2l-7.1,9.6L459,307L459,307z M466.2,298c-0.7-0.1-1.3-0.2-2-0.3
	c-0.7-0.2-1.2-0.4-1.8-0.6v-0.4h6.6v0.4L466.2,298z M462.7,317.5v-0.4c0.8-0.3,1.4-0.5,2.2-0.7c0.8-0.2,1.4-0.3,2.2-0.3l2.9,1v0.4
	H462.7L462.7,317.5z"/>
<path class="st0" d="M126.1,437v-0.3c0.5-0.2,0.9-0.4,1.5-0.5s1.2-0.3,2.1-0.4l0.5-27.2l-2.1-2.2c0.5-0.3,1-0.6,1.5-0.9
	c0.6-0.2,1.1-0.4,1.7-0.5v31l3.9,0.9v0.3L126.1,437L126.1,437z M131,420v-0.9c1-0.9,1.9-1.4,2.9-2s2-1,3-1.2c0.1,0,0.2,0,0.3,0
	s0.2,0,0.3,0c1.2,0,2.5,0.3,3.6,0.8s2.2,1.3,3.1,2.4l-1.1,0.7c-1.7-1.6-3.6-2.5-5.7-2.5C135.3,417.3,133.1,418.2,131,420z
	 M139.2,437v-0.3c0.5-0.2,0.9-0.4,1.5-0.5s1.2-0.3,2.1-0.4l0.4-16.2l1.1-0.7v16.8l3.9,0.9v0.3h-9V437z"/>
<path class="st0" d="M259.2,437v-0.3c0.5-0.2,1-0.4,1.5-0.5s1.2-0.3,2-0.4l0.5-27.2l-2.1-2.2c0.5-0.3,1-0.6,1.5-0.9s1-0.4,1.7-0.5
	v31l3.9,0.9v0.3L259.2,437L259.2,437z M275.8,437.4l-9.4-11.4l8.2-9.3h1.2v0.3l-8.2,9.4v-0.9l9.8,11.2c-0.2,0.1-0.5,0.2-0.8,0.4
	C276.3,437.2,276.1,437.3,275.8,437.4z M275.1,417.6c-0.8-0.1-1.5-0.2-2.2-0.3c-0.7-0.2-1.3-0.4-2-0.6v-0.4h6.9v0.4L275.1,417.6z"/>
<path class="st0" d="M385.2,437v-0.3c0.5-0.2,0.9-0.4,1.5-0.5s1.2-0.3,2-0.4l0.4-16.4l-2.1-2.2c1-0.6,1.9-1,3-1.3l0.2,3.3V436
	l3.9,0.9v0.3L385.2,437L385.2,437z M390.1,420v-0.9c1-0.9,1.9-1.4,2.9-2c0.9-0.5,2-1,3-1.2c0.1,0,0.2,0,0.3,0c0.1,0,0.2,0,0.3,0
	c1.2,0,2.5,0.3,3.6,0.8s2.2,1.3,3.1,2.4l-1.1,0.7c-1.7-1.6-3.6-2.5-5.7-2.5C394.4,417.3,392.2,418.2,390.1,420z M390.8,411.5
	l-0.3-0.4c0.7-0.9,1.1-1.4,1.5-1.9s0.7-0.8,1-0.9c0.3-0.2,0.5-0.2,0.7-0.2s0.4,0.1,0.7,0.1l4.7,1.2l2.5-2.3l0.3,0.3
	c-0.9,1.1-1.4,1.9-1.9,2.4s-0.9,0.7-1,0.8c-0.2,0.1-0.6,0-0.9-0.1l-4.7-1.2L390.8,411.5z M398.2,437v-0.3c0.5-0.2,0.9-0.4,1.5-0.5
	s1.2-0.3,2-0.4l0.4-16.2l1.1-0.7v16.8l3.9,0.9v0.3h-8.9V437z"/>
<path class="st0" d="M517.7,437v-0.3c1-0.5,1.9-0.8,3-1l3.6,1v0.4L517.7,437L517.7,437z M521.8,417.6c-0.7-0.1-1.2-0.2-1.8-0.4
	s-1-0.4-1.4-0.6v-0.4h7.1v0.4L521.8,417.6z M519.6,436.7v-0.2l8.3-11.1h0.8l8,10.9v0.4h-1.4l-7.3-10.2h0.6l-7.5,10.2L519.6,436.7
	L519.6,436.7z M527.8,426.5l-6.8-9.4v-0.4h1.4l6.1,8.6h-0.6l6.3-8.6h1.4v0.2l-7.1,9.6L527.8,426.5L527.8,426.5z M535,417.6
	c-0.7-0.1-1.3-0.2-2-0.3c-0.7-0.2-1.2-0.4-1.8-0.6v-0.4h6.7v0.4L535,417.6z M531.6,437v-0.3c0.8-0.3,1.4-0.5,2.2-0.7
	s1.4-0.3,2.2-0.3l2.9,1v0.4L531.6,437L531.6,437z"/>
<path class="st0" d="M1017.3,197.9v-0.4c0.5-0.2,1-0.4,1.5-0.5c0.6-0.1,1.2-0.3,2.1-0.4l0.5-27.2l-2.1-2.2c0.5-0.3,1-0.6,1.5-0.9
	c0.5-0.3,1.1-0.4,1.7-0.5v30.8l3.9,0.9v0.3L1017.3,197.9L1017.3,197.9z M1022.3,180.8V180c1-0.9,1.9-1.4,2.8-2c1-0.5,2-0.9,3-1.2
	c0.1,0,0.2,0,0.3,0s0.2,0,0.3,0c1.2,0,2.5,0.3,3.6,0.8s2.2,1.3,3.1,2.4l-1.1,0.7c-1.7-1.6-3.6-2.5-5.7-2.5
	C1026.6,178.2,1024.4,179.1,1022.3,180.8z M1030.4,197.9v-0.4c0.5-0.2,1-0.4,1.5-0.5c0.6-0.1,1.2-0.3,2.1-0.4l0.4-16.1l1.1-0.7v16.8
	l3.9,0.9v0.3L1030.4,197.9L1030.4,197.9z"/>
<path class="st0" d="M1150.5,197.9v-0.4c0.5-0.2,0.9-0.4,1.5-0.5s1.2-0.3,2.1-0.4l0.5-27.2l-2.1-2.2c0.5-0.3,1-0.6,1.5-0.9
	c0.5-0.3,1.1-0.4,1.7-0.5v30.8l3.9,0.9v0.3L1150.5,197.9L1150.5,197.9z M1167.1,198.3l-9.4-11.4l8.3-9.3h1.2v0.3l-8.3,9.4v-0.9
	l9.8,11.2c-0.2,0.1-0.5,0.2-0.8,0.4C1167.6,198.1,1167.3,198.2,1167.1,198.3z M1166.4,178.4c-0.8-0.1-1.5-0.2-2.2-0.3
	c-0.7-0.2-1.3-0.4-2-0.6v-0.4h6.9v0.4L1166.4,178.4z"/>
<path class="st0" d="M1276.5,197.9v-0.4c0.5-0.2,0.9-0.4,1.5-0.5s1.2-0.3,2.1-0.4l0.4-16.4l-2.1-2.2c0.9-0.6,1.9-1,3-1.3l0.2,3.3
	v16.7l3.9,0.9v0.3L1276.5,197.9L1276.5,197.9z M1281.4,180.8V180c0.9-0.9,1.9-1.4,2.8-2c1-0.5,2-0.9,3-1.2c0.1,0,0.2,0,0.3,0
	s0.2,0,0.3,0c1.2,0,2.5,0.3,3.6,0.8s2.2,1.3,3.1,2.4l-1.1,0.7c-1.7-1.6-3.6-2.5-5.7-2.5C1285.7,178.2,1283.5,179.1,1281.4,180.8z
	 M1282.1,172.4l-0.3-0.4c0.7-0.9,1.1-1.5,1.5-1.9c0.4-0.5,0.7-0.8,0.9-0.9c0.3-0.2,0.5-0.2,0.7-0.2s0.4,0.1,0.7,0.1l4.7,1.2l2.5-2.3
	l0.3,0.3c-0.9,1.1-1.4,1.9-1.9,2.3c-0.5,0.5-0.8,0.7-1,0.8s-0.6,0-0.9-0.1l-4.7-1.2L1282.1,172.4z M1289.6,197.9v-0.4
	c0.5-0.2,0.9-0.4,1.5-0.5s1.2-0.3,2.1-0.4l0.4-16.1l1.1-0.7v16.8l3.9,0.9v0.3L1289.6,197.9L1289.6,197.9z"/>
<path class="st0" d="M98.9,565.6c-2.7,0-4.8-0.6-6.3-1.7c-1.6-1.1-2.4-2.8-2.3-4.8c0.5-1.1,1.1-2.1,2.1-2.8c0.9-0.9,1.9-1.4,3-2h0.7
	c-1.6,1.1-2.8,2.2-3.3,3c-0.7,0.9-0.9,1.6-0.9,2.4c0,1.4,0.7,2.6,2.1,3.4c1.4,0.9,3.1,1.2,5.3,1.2c2.5,0,4.6-0.5,6.1-1.6
	s2.4-2.5,2.4-4.1c0-0.6-0.1-1.2-0.4-1.9s-0.7-1.3-1.2-1.9h-11c-0.5-0.5-0.9-1-1.1-1.6c-0.3-0.6-0.4-1.1-0.4-1.7
	c0-0.6,0.1-1.1,0.4-1.7c0.3-0.6,0.7-1.1,1.1-1.6l-0.1,5.2h9.5c0.9,0,1.6,0.2,2.3,0.7c0.7,0.5,1.2,1,1.6,1.8s0.6,1.6,0.6,2.6
	c0,1.4-0.4,2.8-1.2,3.8s-2.1,1.9-3.6,2.6C102.6,565.3,100.9,565.6,98.9,565.6z M99.2,549.6c-2.4,0-4.2-0.6-5.6-1.8s-2.1-2.9-2.1-4.8
	c0-1.4,0.4-2.8,1-3.9c0.7-1.1,1.7-2,2.9-2.7c1.2-0.7,2.8-1,4.4-1c2.4,0,4.3,0.6,5.7,1.8c1.5,1.2,2.2,2.8,2.2,4.8
	c0,1.4-0.4,2.8-1.1,3.9c-0.8,1.1-1.7,2-3,2.6C102.3,549.3,100.8,549.6,99.2,549.6z M99.2,548.4c2.2,0,4-0.6,5.3-1.6s2-2.6,2-4.4
	c0-1.8-0.7-3.1-1.9-4.2c-1.2-0.9-2.9-1.5-4.9-1.5c-0.9,0-1.6,0.1-2.6,0.2s-1.7,0.4-2.6,0.7c-0.7,1-1.1,2.1-1.4,2.9
	c-0.3,0.9-0.5,1.7-0.5,2.4c0,1.6,0.6,2.9,1.8,4C95.7,547.9,97.3,548.4,99.2,548.4z M105.2,537.8c-0.1-0.4-0.2-0.9-0.3-1.2
	c-0.1-0.4-0.1-0.8-0.1-1.1c0-1,0.3-1.8,1-2.4c0.7-0.6,1.5-0.8,2.7-0.8c0.3,0,0.7,0,1,0.1c0.4,0,0.8,0.1,1.2,0.2l-0.2,1.2h-4.2
	l-0.9,4H105.2L105.2,537.8z"/>
<path class="st0" d="M213.3,564.7l0.1-1.2l7,0.5c0.8-1,1.4-1.9,2-2.8s1-1.9,1.5-2.9s1-2.4,1.5-3.8l6.8-18h1.3l-7.1,18.5
	c-1.4,3.7-2.9,6.5-4.3,8.2c-1.4,1.7-3.1,2.6-5.1,2.6c-0.6,0-1.1-0.1-1.8-0.2C214.7,565.1,214,564.9,213.3,564.7z M217.4,537.2
	c-0.6-0.1-1-0.2-1.4-0.4c-0.5-0.2-0.9-0.4-1.3-0.6v-0.4h7.2v0.4L217.4,537.2z M223.9,556.2l-7.4-19.9h1.5l7.1,19.5L223.9,556.2z
	 M233,537.2c-0.9-0.1-1.7-0.2-2.5-0.3c-0.9-0.2-1.6-0.4-2.5-0.6v-0.4h7.2v0.4L233,537.2z"/>
<path class="st0" d="M1350.5,58.8c-0.6-0.1-1-0.2-1.4-0.4s-0.9-0.4-1.2-0.6v-0.4h7.2v0.4L1350.5,58.8z M1357.4,78.6l-7.7-20.6h1.5
	l7.2,19.8h-0.5l5.5-14.7l0.7,1.6l-4.7,12.1c-0.2,0.4-0.3,0.7-0.4,1c-0.1,0.2-0.3,0.4-0.4,0.6s-0.3,0.2-0.6,0.3
	C1358,78.5,1357.8,78.6,1357.4,78.6z M1361.8,58.8c-0.6-0.1-1-0.2-1.4-0.4s-0.9-0.4-1.2-0.6v-0.4h7.2v0.4L1361.8,58.8z M1368.7,78.6
	L1361,58h1.5l7.2,19.8h-0.5l7.5-19.8h1.3l-7.3,18.7c-0.2,0.4-0.3,0.7-0.4,1c-0.1,0.2-0.3,0.4-0.4,0.6s-0.3,0.2-0.6,0.3
	C1369.3,78.5,1369,78.6,1368.7,78.6z M1377.5,58.8c-0.9-0.1-1.7-0.2-2.5-0.3c-0.9-0.2-1.6-0.4-2.5-0.6v-0.4h7.2V58L1377.5,58.8z"/>
<path class="st0" d="M91.4,204.5c-2.7,0-4.8-0.6-6.3-1.7c-1.5-1.1-2.4-2.8-2.3-4.8c0.5-1.1,1.1-2.1,2-2.9c0.9-0.9,1.9-1.4,3-2h0.7
	c-1.6,1.1-2.8,2.2-3.3,3c-0.6,0.9-1,1.6-1,2.4c0,1.4,0.7,2.6,2,3.4c1.3,0.9,3.1,1.2,5.3,1.2c2.5,0,4.6-0.6,6.1-1.6s2.4-2.5,2.4-4.1
	c0-0.6-0.1-1.2-0.4-1.9c-0.3-0.7-0.7-1.3-1.3-1.9H87.6c-0.5-0.6-0.9-1-1.1-1.6c-0.2-0.6-0.4-1.1-0.4-1.7c0-0.6,0.1-1.1,0.4-1.7
	c0.3-0.6,0.7-1.1,1.1-1.6l-0.1,5.2H97c0.9,0,1.6,0.2,2.4,0.7c0.7,0.5,1.2,1,1.6,1.7c0.4,0.8,0.6,1.6,0.6,2.6c0,1.4-0.5,2.8-1.3,3.8
	c-0.9,1-2,1.9-3.6,2.6S93.4,204.5,91.4,204.5z M91.7,188.6c-2.4,0-4.2-0.6-5.6-1.8S84,184,84,182c0-1.4,0.4-2.8,1-3.9
	c0.7-1.1,1.7-2,2.9-2.7c1.2-0.7,2.8-1,4.4-1c2.4,0,4.3,0.6,5.7,1.8c1.4,1.2,2.2,2.8,2.2,4.8c0,1.5-0.4,2.8-1.1,3.9
	c-0.8,1.1-1.8,2-3,2.6C94.9,188.3,93.4,188.6,91.7,188.6z M91.7,187.3c2.3,0,4-0.6,5.3-1.6s2-2.6,2-4.4s-0.7-3.1-1.9-4.2
	c-1.2-1-2.9-1.5-4.9-1.5c-0.9,0-1.6,0.1-2.6,0.2c-0.9,0.2-1.7,0.4-2.6,0.7c-0.7,1-1.1,2.1-1.4,2.9c-0.3,0.9-0.5,1.7-0.5,2.4
	c0,1.6,0.6,2.9,1.8,3.9C88.2,186.9,89.8,187.3,91.7,187.3z M97.8,176.8c-0.1-0.4-0.2-0.9-0.3-1.2c-0.1-0.4-0.1-0.8-0.1-1.1
	c0-1,0.3-1.8,1-2.4c0.6-0.5,1.5-0.8,2.7-0.8c0.3,0,0.7,0,1,0.1c0.4,0,0.8,0.1,1.2,0.2l-0.2,1.2h-4.2l-0.9,4H97.8z"/>
</svg>
