<?xml version="1.0" encoding="UTF-8"?>
<svg width="865px" height="401px" viewBox="0 0 865 401" version="1.1" xmlns="http://www.w3.org/2000/svg" xmlns:xlink="http://www.w3.org/1999/xlink">
    <title>Reloj completo</title>
    <g id="Desktop" stroke="none" stroke-width="1" fill="none" fill-rule="evenodd">
        <g id="Piazzolla_Desktop_V3" transform="translate(-417.000000, -7408.000000)">
            <g id="Download-Size" transform="translate(158.000000, 6948.000000)">
                <g id="Fig-4--Speed-test" transform="translate(259.000000, 361.000000)">
                    <g id="Group-20" transform="translate(0.000000, 99.000000)">
                        <g id="Textos" fill="#151525" fill-opacity="0.45" font-family="Piazzolla-ThinItalic_Medium-Italic, Piazzolla" font-size="24" font-style="italic" font-weight="500" line-spacing="24">
                            <text id="don’t-worry,-it’s-ok">
                                <tspan x="0" y="299">don’t worry, </tspan>
                                <tspan x="58.3778966" y="323">it’s ok</tspan>
                            </text>
                            <text id="don’t-worry!">
                                <tspan x="28" y="138">don’t worry!</tspan>
                            </text>
                            <text id="start-worrying">
                                <tspan x="462" y="27">start worrying</tspan>
                            </text>
                            <text id="well-well,-it-scalat">
                                <tspan x="635" y="138">well well, it scalated </tspan>
                                <tspan x="635" y="162">quickly</tspan>
                            </text>
                            <text id="we-have-a-problem-he">
                                <tspan x="653" y="297">we have a </tspan>
                                <tspan x="653" y="321">problem here</tspan>
                            </text>
                        </g>
                        <g id="Numeros-Reloj" transform="translate(134.000000, 24.000000)" fill="#151525" font-family="Piazzolla-Thin_Medium, Piazzolla" font-style="condensed" font-weight="400" line-spacing="24">
                            <text id="0.0001" font-size="24" fill-opacity="0.65">
                                <tspan x="0" y="247">0.0001</tspan>
                            </text>
                            <text id="0.01" font-size="24" fill-opacity="0.65">
                                <tspan x="268" y="27">0.01</tspan>
                            </text>
                            <text id="1" font-size="24" fill-opacity="0.65">
                                <tspan x="487" y="247">1</tspan>
                            </text>
                            <text id="0.1" font-size="24" fill-opacity="0.65">
                                <tspan x="442" y="100">0.1</tspan>
                            </text>
                            <text id="0.001" font-size="48">
                                <tspan x="0" y="100">0.001</tspan>
                            </text>
                        </g>
                        <g id="Reloj" transform="translate(221.500000, 63.691342)">
                            <path d="M193.5,0.308657865 C299.538672,0.308657865 385.5,86.2699859 385.5,192.308658 C385.5,224.965261 377.347016,255.717634 362.965469,282.641353 L322.4386,256.495627 C332.077801,237.169857 337.5,215.372468 337.5,192.308658 C337.5,112.779654 273.029004,48.3086579 193.5,48.3086579 C113.970996,48.3086579 49.5,112.779654 49.5,192.308658 C49.5,215.372868 54.9223864,237.170612 64.5619006,256.496631 L24.0350637,282.642351 C9.65318529,255.718393 1.5,224.965665 1.5,192.308658 C1.5,86.2699859 87.461328,0.308657865 193.5,0.308657865 Z" id="Combined-Shape" fill="#FFFFFF"></path>
                            <path d="M193.5,0.308657865 C299.538672,0.308657865 385.5,86.2699859 385.5,192.308658 C385.5,224.965261 377.347016,255.717634 362.965469,282.641353 L322.4386,256.495627 C332.077801,237.169857 337.5,215.372468 337.5,192.308658 C337.5,112.779654 273.029004,48.3086579 193.5,48.3086579 C113.970996,48.3086579 49.5,112.779654 49.5,192.308658 C49.5,215.372868 54.9223864,237.170612 64.5619006,256.496631 L24.0350637,282.642351 C9.65318529,255.718393 1.5,224.965665 1.5,192.308658 C1.5,86.2699859 87.461328,0.308657865 193.5,0.308657865 Z" id="Combined-Shape" fill="#FFFFFF"></path>
                            <path d="M380.5,192.308658 C380.5,223.966098 372.633423,253.786202 358.748405,279.920833 L327.511645,259.767006 C337.73953,239.488357 343.5,216.571222 343.5,192.308658 C343.5,111.812819 280.093849,46.1262798 200.501685,42.4691784 L200.502111,5.43732846 C300.535072,9.11969764 380.5,91.3757729 380.5,192.308658 Z" id="Combined-Shape" fill="#FECE03"></path>
                            <g id="Group-3">
                                <line x1="201" y1="201.808658" x2="337.5" y2="65.7676422" id="Line-3-Copy-2" stroke="#979797" stroke-linecap="square"></line>
                                <line x1="271.667785" y1="172.122889" x2="129.332215" y2="29.7873196" id="Line-3-Copy-3" stroke="#979797" stroke-linecap="square" transform="translate(200.500000, 100.955104) rotate(-315.000000) translate(-200.500000, -100.955104) "></line>
                                <line x1="199.816987" y1="202.491671" x2="1" y2="202.808658" id="Line-3-Copy-3" stroke="#979797" stroke-linecap="square"></line>
                                <line x1="384" y1="201.808658" x2="199.5" y2="202.491671" id="Line-3-Copy-4" stroke="#979797" stroke-linecap="square"></line>
                                <circle id="Oval" fill="#EFEEEA" cx="193.5" cy="192.308658" r="144"></circle>
                                <path id="Line-3-Copy" d="M40.7869988,39.7776116 L40.9142136,39.8944443 L193.046936,192.025997 C197.733298,188.686669 204.281034,189.119129 208.485281,193.323376 C213.171573,198.009668 213.171573,205.607648 208.485281,210.293939 C203.79899,214.980231 196.20101,214.980231 191.514719,210.293939 C187.31042,206.089641 186.878001,199.541797 190.217461,194.855424 L38.0857864,42.7228714 C37.3047379,41.9418228 37.3047379,40.6754929 38.0857864,39.8944443 C38.8257272,39.1545035 40.0012114,39.1155593 40.7869988,39.7776116 Z" fill="#979797" fill-rule="nonzero"></path>
                            </g>
                        </g>
                        <text id="SECONDS" font-family="Piazzolla-Thin_Medium, Piazzolla" font-size="24" font-style="condensed" font-weight="400" line-spacing="24" letter-spacing="4" fill="#151525" fill-opacity="0.85">
                            <tspan x="353" y="337">SECONDS</tspan>
                        </text>
                    </g>
                </g>
            </g>
        </g>
    </g>
</svg>